<?xml version="1.0" encoding="UTF-8" standalone="no"?>
<svg
   version="1.1"
   style="font-size:12px;font-family:Roboto"
   width="1296"
   height="648"
   id="svg1495"
   sodipodi:docname="map-hn-la-br-fr-ru-in-kr-jp-bc-us-es-sa-ma-uk-cn-au-v1.3.1-Export-Shadow.svg"
   inkscape:version="1.1.1 (3bf5ae0d25, 2021-09-20)"
   xmlns:inkscape="http://www.inkscape.org/namespaces/inkscape"
   xmlns:sodipodi="http://sodipodi.sourceforge.net/DTD/sodipodi-0.dtd"
   xmlns="http://www.w3.org/2000/svg"
   xmlns:svg="http://www.w3.org/2000/svg">
  <sodipodi:namedview
     id="namedview1497"
     pagecolor="#ffffff"
     bordercolor="#666666"
     borderopacity="1.0"
     inkscape:pageshadow="2"
     inkscape:pageopacity="0.0"
     inkscape:pagecheckerboard="0"
     showgrid="false"
     inkscape:zoom="1.0678572"
     inkscape:cx="510.83609"
     inkscape:cy="289.36453"
     inkscape:window-width="2775"
     inkscape:window-height="2088"
     inkscape:window-x="939"
     inkscape:window-y="0"
     inkscape:window-maximized="0"
     inkscape:current-layer="Layer-Shadow"
     inkscape:snap-intersection-paths="true"
     inkscape:object-paths="true"
     inkscape:snap-midpoints="false"
     inkscape:snap-smooth-nodes="false"
     inkscape:snap-global="true"
     inkscape:showpageshadow="false"
     showguides="false"
     fit-margin-top="0"
     fit-margin-left="0"
     fit-margin-right="0"
     fit-margin-bottom="0" />
  <desc
     id="desc2">Created with Highmaps 4.2.7</desc>
  <defs
     id="defs7" />
  <g
     inkscape:groupmode="layer"
     id="Layer-Shadow"
     inkscape:label="Shadow"
     style="display:inline">
    <path
       id="shadow"
       style="font-size:12px;font-family:Roboto;opacity:0.4;fill:#0b1f46;stroke-width:9.17262"
       d="m 0,0 v 109.90233 l 2.1128109,0.10073 12.9609851,1.01767 12.958402,1.4335 12.960985,1.87778 12.960985,2.35043 12.958401,2.86444 12.960986,3.43266 12.958402,4.06549 12.960993,4.78094 12.96098,5.59198 12.9584,6.53215 12.96099,7.62213 12.9584,8.89809 12.96098,10.39875 12.96098,12.18096 12.95842,14.29117 12.96098,16.78625 12.9584,19.71011 12.96099,23.06528 12.96098,26.78466 12.9584,30.66158 12.96099,34.31899 12.9584,37.21181 12.96098,38.76672 12.96098,38.61951 12.95841,36.8063 12.96098,33.74815 12.95841,30.01845 12.96099,26.14668 12.96098,22.47897 12.9584,19.19093 12.96099,16.342 12.9584,13.91407 12.96098,11.86326 12.96098,10.13012 12.95841,8.67079 12.96098,7.42842 12.9584,6.36426 12.96099,5.45251 12.96098,4.65438 12.95841,3.95441 12.96099,3.33453 12.9584,2.77662 12.96098,2.26778 12.96098,1.80028 12.95841,1.36377 12.96098,0.9505 12.9584,0.55017 12.96099,0.16271 12.96098,-0.22729 12.9584,-0.61474 12.96099,-1.01765 12.95841,-1.4361 12.96098,-1.87517 12.96098,-2.35045 12.95841,-2.86701 12.96098,-3.43268 12.9584,-4.06548 12.96099,-4.77836 12.96098,-5.59456 12.9584,-6.53214 12.96099,-7.62214 12.9584,-8.89551 12.96098,-10.40133 12.96098,-12.18095 12.95842,-14.29118 12.96098,-16.78626 12.9584,-19.71009 12.96099,-23.06528 12.96098,-26.78467 12.9584,-30.66158 12.96099,-34.31898 12.9584,-37.21182 12.96098,-38.76672 12.96098,-38.61692 12.95841,-36.80888 12.96098,-33.74816 12.95842,-30.01845 12.9609,-26.14668 12.9611,-22.47638 12.9583,-19.19353 12.9611,-16.34199 12.9583,-13.91407 12.961,-11.86066 12.961,-10.13272 12.9584,-8.67078 12.9611,-7.42843 12.9583,-6.36426 12.961,-5.4525 12.961,-4.65439 12.9584,-3.95441 12.9609,-3.33452 12.9585,-2.77404 12.9609,-2.27036 12.9611,-1.80029 12.9583,-1.36377 12.961,-0.95051 12.9584,-0.55015 12.961,-0.16014 12.961,0.22471 10.8456,0.51658 V 0 Z" />
    <g
       id="g3364"
       transform="matrix(0.14895298,0,0,0.14895298,561.99901,1496.7429)"
       style="font-size:12px;font-family:Roboto">
      <path
         id="path3314"
         style="fill:#ffcc00"
         d="m 2347.4059,-6417.8564 c -12.3677,-9.0916 -32.6254,-8.9519 -47.3775,-3.4983 -15.8062,5.8434 -23.2214,12.079 -40.8838,29.7413 l 0.5206,0.5899 c 7.9455,5.0613 15.3485,10.9278 22.0916,17.5064 7.4235,7.4547 13.9641,15.7391 19.4936,24.6893 4.995,1.2455 9.9258,2.7351 14.7748,4.4636 17.3964,-20.8097 13.0952,-40.8999 12.674,-54.5673 -0.4947,-12.5664 11.7242,-18.4691 18.7066,-18.9248 z m -147.5671,-73.6055 c -15.1739,2.3166 -29.4006,16.7382 -35.9755,31.0257 -7.0328,15.2829 -7.8747,24.9443 -7.8776,49.829 24.4546,-5.187 49.8618,-3.5919 73.4756,4.6128 l 0.3274,0.021 c 2.0632,-35.464 -18.538,-48.2963 -29.7952,-58.8805 -9.2355,-8.5359 -4.7698,-21.3482 -0.1547,-26.6077 z m -89.4421,99.8472 c -17.6623,-17.6623 -25.0761,-23.8966 -40.8823,-29.7399 -14.7521,-5.4537 -35.0099,-5.5934 -47.3776,3.4982 6.9824,0.4556 19.2013,6.3583 18.7066,18.9247 -0.476,15.4442 -5.9717,39.0854 20.5641,62.7033 l 0.4681,-0.529 c 6.5554,-13.5955 15.3098,-26.0156 25.9103,-36.7598 6.7412,-6.5768 14.1418,-12.4419 22.0847,-17.5024 z m -59.7021,86.2987 c -24.8848,0 -34.5462,0.8446 -49.829,7.8776 -14.2876,6.5749 -28.7092,20.8014 -31.0257,35.9754 5.2594,-4.6151 18.0717,-9.0808 26.6077,0.1548 10.5841,11.2572 23.4166,31.8584 58.8804,29.7951 l -0.021,-0.3273 c -8.2047,-23.6138 -9.7998,-49.021 -4.6127,-73.4756 z m 10.7129,88.4836 c -26.5358,23.6179 -21.04,47.2592 -20.5641,62.7033 0.4947,12.5664 -11.7256,18.4677 -18.708,18.9234 12.3678,9.0915 32.6268,8.9532 47.379,3.4997 15.8061,-5.8435 23.22,-12.0776 40.8823,-29.74 l -0.5261,-0.5953 c -7.9435,-5.0608 -15.3445,-10.9262 -22.086,-17.5036 -10.5999,-10.7439 -19.3538,-23.1637 -25.9088,-36.7585 z"
         sodipodi:nodetypes="ssccccccsscsccccccsccccccccsccccccccsccccc" />
      <path
         id="path3316"
         style="fill:#ffcc00;fill-opacity:1;stroke:none;stroke-width:11.6385;stroke-linecap:round;stroke-linejoin:round;-inkscape-stroke:none;stop-color:#000000"
         d="m 2262.8059,-6354.5662 a 110.3585,110.3585 0 0 0 -156.069,-1e-4 110.3585,110.3585 0 0 0 0,156.0704 110.3585,110.3585 0 0 0 1.6338,1.4156 157.41299,157.41299 0 0 1 45.7051,-110.1484 157.41299,157.41299 0 0 1 110.2879,-45.7037 110.3585,110.3585 0 0 0 -1.5562,-1.634 z" />
      <circle
         style="fill:#003399;fill-opacity:0.67;stroke:none;stroke-width:13.7746;stroke-linecap:round;stroke-linejoin:round;-inkscape-stroke:none;stop-color:#000000"
         id="circle3318"
         cx="-2779.311"
         cy="-5983.0439"
         r="130.61301"
         transform="rotate(45)" />
      <g
         id="g3362"
         transform="matrix(13.403112,0,0,13.402872,-24861.796,70066.449)">
        <ellipse
           class="st2"
           cx="2023.9462"
           cy="-5690.002"
           id="ellipse3320"
           style="fill:#e6e6e6;fill-opacity:1;stroke-width:0.11546"
           rx="9.7448912"
           ry="9.7447882" />
        <path
           id="path3322"
           style="fill:#cbcfd1;fill-opacity:1;fill-rule:evenodd;stroke-width:2.55632;stroke-linecap:round;stroke-linejoin:round;paint-order:stroke markers fill;stop-color:#000000"
           d="m 2023.9465,-5699.7471 a 9.7448996,9.7447788 0 0 0 -9.7454,9.7454 9.7448996,9.7447788 0 0 0 9.7454,9.7446 9.7448996,9.7447788 0 0 0 0.5461,-0.04 12.886522,12.856824 0 0 1 -4.4359,-9.705 12.886522,12.856824 0 0 1 4.46,-9.7263 9.7448996,9.7447788 0 0 0 -0.5702,-0.019 z" />
        <ellipse
           transform="matrix(0.90458687,0.42628934,-0.42629669,0.9045834,0,0)"
           class="st3"
           cx="-601.71686"
           cy="-6010.5552"
           rx="1.6511133"
           ry="2.3669648"
           id="ellipse3324"
           style="fill:#b0b9bb;fill-opacity:1;stroke-width:0.115462" />
        <ellipse
           transform="matrix(0.73900623,-0.67369859,0.67370634,0.73899916,0,0)"
           class="st4"
           cx="5336.5659"
           cy="-2841.416"
           rx="1.3393339"
           ry="2.1475506"
           id="ellipse3326"
           style="fill:#95a5a5;fill-opacity:1;stroke-width:0.11546" />
        <ellipse
           transform="matrix(0.94942171,-0.31400385,0.31400982,0.94941973,0,0)"
           class="st4"
           cx="3713.2344"
           cy="-4766.6694"
           rx="0.63501984"
           ry="1.0160232"
           id="ellipse3328"
           style="fill:#95a5a5;fill-opacity:1;stroke-width:0.115458" />
        <ellipse
           transform="matrix(0.38720195,-0.92199493,0.92199784,0.38719501,0,0)"
           class="st4"
           cx="6027.9658"
           cy="-337.22345"
           rx="0.63503116"
           ry="1.0160574"
           id="ellipse3330"
           style="fill:#95a5a5;fill-opacity:1;stroke-width:0.115461" />
        <ellipse
           transform="matrix(-0.37779896,-0.92588765,0.92589044,-0.37779212,0,0)"
           class="st4"
           cx="4501.2896"
           cy="4020.5435"
           rx="0.30019891"
           ry="0.47339413"
           id="ellipse3332"
           style="fill:#95a5a5;fill-opacity:1;stroke-width:0.115462" />
        <ellipse
           transform="matrix(0.61429075,-0.78907977,0.78908606,0.61428266,0,0)"
           class="st4"
           cx="5732.5103"
           cy="-1896.2771"
           rx="0.30020258"
           ry="0.47339761"
           id="ellipse3334"
           style="fill:#95a5a5;fill-opacity:1;stroke-width:0.115463" />
        <ellipse
           transform="matrix(0.61429075,-0.78907977,0.78908606,0.61428266,0,0)"
           class="st4"
           cx="5736.0747"
           cy="-1900.5787"
           rx="0.15010129"
           ry="0.24247193"
           id="ellipse3336"
           style="fill:#95a5a5;fill-opacity:1;stroke-width:0.115463" />
        <ellipse
           transform="matrix(0.61440146,-0.78899356,0.78899984,0.6143934,0,0)"
           class="st4"
           cx="5724.9316"
           cy="-1898.3788"
           rx="0.15009867"
           ry="0.2424677"
           id="ellipse3338"
           style="fill:#b0b9bb;fill-opacity:1;stroke-width:0.115461" />
        <ellipse
           transform="matrix(-0.54708904,-0.83707442,0.83707971,-0.54708095,0,0)"
           class="st4"
           cx="3650.5681"
           cy="4801.2759"
           rx="0.15010203"
           ry="0.24247354"
           id="ellipse3340"
           style="fill:#b0b9bb;fill-opacity:1;stroke-width:0.115463" />
        <ellipse
           transform="matrix(0.9493919,-0.31409397,0.31409994,0.94938992,0,0)"
           class="st4"
           cx="3700.6389"
           cy="-4767.959"
           rx="0.42720857"
           ry="0.69276482"
           id="ellipse3342"
           style="fill:#b0b9bb;fill-opacity:1;stroke-width:0.115461" />
        <ellipse
           transform="matrix(0.94946137,-0.3138839,0.31388987,0.9494594,0,0)"
           class="st4"
           cx="3700.7102"
           cy="-4767.6958"
           rx="0.28866374"
           ry="0.46185803"
           id="ellipse3344"
           style="fill:#b0b9bb;fill-opacity:1;stroke-width:0.115465" />
        <ellipse
           transform="matrix(-0.77722948,-0.62921724,0.62922525,-0.777223,0,0)"
           class="st4"
           cx="2014.8383"
           cy="5698.981"
           rx="0.28864104"
           ry="0.46182466"
           id="ellipse3346"
           style="fill:#b0b9bb;fill-opacity:1;stroke-width:0.115456" />
        <ellipse
           transform="matrix(-0.77718061,-0.6292776,0.62928561,-0.77717413,0,0)"
           class="st4"
           cx="2014.0334"
           cy="5700.0615"
           rx="0.12701005"
           ry="0.20783415"
           id="ellipse3348"
           style="fill:#b0b9bb;fill-opacity:1;stroke-width:0.115463" />
        <ellipse
           transform="matrix(-0.77718061,-0.6292776,0.62928561,-0.77717413,0,0)"
           class="st4"
           cx="1999.8253"
           cy="5692.4668"
           rx="0.31175193"
           ry="0.49649277"
           id="ellipse3350"
           style="fill:#95a5a5;fill-opacity:1;stroke-width:0.115463" />
        <ellipse
           transform="matrix(0.13230264,0.99120937,-0.99120974,0.13229989,0,0)"
           class="st4"
           cx="-5363.6299"
           cy="-2759.3257"
           rx="0.21937111"
           ry="0.34637895"
           id="ellipse3352"
           style="fill:#95a5a5;fill-opacity:1;stroke-width:0.115459" />
        <ellipse
           transform="matrix(-0.87279286,0.4880908,-0.48809864,-0.87278847,0,0)"
           class="st4"
           cx="-4542.1069"
           cy="3971.1304"
           rx="0.41566226"
           ry="0.6696744"
           id="ellipse3354"
           style="fill:#95a5a5;fill-opacity:1;stroke-width:0.115461" />
        <ellipse
           transform="matrix(0.65169248,0.75848329,-0.75849008,0.65168459,0,0)"
           class="st4"
           cx="-2990.1807"
           cy="-5242.5303"
           rx="0.41566363"
           ry="0.66968137"
           id="ellipse3356"
           style="fill:#95a5a5;fill-opacity:1;stroke-width:0.115462" />
        <ellipse
           transform="matrix(0.61630959,-0.78750396,0.78751027,0.61630153,0,0)"
           class="st4"
           cx="5720.9004"
           cy="-1916.8817"
           rx="0.53111136"
           ry="0.85439873"
           id="ellipse3358"
           style="fill:#b0b9bb;fill-opacity:1;stroke-width:0.115459" />
        <ellipse
           transform="matrix(0.89140897,0.4531998,-0.45320739,0.89140511,0,0)"
           class="st4"
           cx="-768.53424"
           cy="-5993.5098"
           rx="0.63502795"
           ry="1.0160385"
           id="ellipse3360"
           style="fill:#95a5a5;fill-opacity:1;stroke-width:0.115459" />
      </g>
    </g>
    <path
       id="path2511"
       style="font-size:12px;font-family:Roboto;fill:#ffd518;fill-opacity:1;stroke-width:0.147666"
       d="m 1274.4125,529.81965 c -2.2398,0.34327 -4.3399,2.47301 -5.3105,4.58206 -1.0403,2.26057 -1.1649,3.68569 -1.1649,7.37418 l 0.1008,0.008 a 20.253796,20.253796 0 0 1 4.1507,-0.47783 20.253796,20.253796 0 0 1 6.6484,1.1313 c 0.3013,-5.23096 -2.7397,-7.12416 -4.4012,-8.68628 -1.3638,-1.26048 -0.7048,-3.15451 -0.023,-3.93117 z m -23.0937,7.72286 c -1.3425,1.82631 -1.3219,4.8187 -0.5166,6.99709 0.8629,2.33407 1.7854,3.42808 4.3935,6.03622 l 0.1369,-0.12392 a 20.253796,20.253796 0 0 1 7.8856,-6.97382 l 0.155,-0.13689 c -3.4876,-3.91846 -6.9792,-3.10518 -9.2597,-3.0349 -1.8556,0.073 -2.7274,-1.73264 -2.7947,-2.76371 z m 41.7396,0 c -0.067,1.03108 -0.939,2.83675 -2.7947,2.76371 -2.2794,-0.0702 -5.7687,-0.88204 -9.2544,3.02974 a 20.253796,20.253796 0 0 1 8.1799,7.23211 c 2.6014,-2.60179 3.5239,-3.69706 4.3858,-6.02847 0.8053,-2.17841 0.8259,-5.17078 -0.5166,-6.99709 z m -20.8698,7.72028 a 16.296318,16.296318 0 0 0 -16.2955,16.29552 16.296318,16.296318 0 0 0 16.2955,16.29549 16.296318,16.296318 0 0 0 16.2955,-16.29549 16.296318,16.296318 0 0 0 -16.2955,-16.29552 z m 20.0588,9.62905 c -0.2995,-0.005 -0.6131,-6.6e-4 -0.9376,0.0181 a 20.253796,20.253796 0 0 1 1.1339,6.64837 20.253796,20.253796 0 0 1 -0.4779,4.15072 l 0.01,0.10077 c 1.7574,0 2.9592,-0.0413 4.0242,-0.18338 v -9.77111 c -1.0103,-0.51827 -2.1685,-0.93228 -3.7478,-0.96342 z m -39.8412,2.41502 c -3.6885,0 -5.1136,0.12458 -7.3742,1.16487 -2.1098,0.97092 -4.24,3.07233 -4.582,5.31304 0.7766,-0.6815 2.6681,-1.34306 3.9285,0.0206 1.563,1.66231 3.4598,4.70591 8.6967,4.40125 v -0.0361 a 20.253796,20.253796 0 0 1 -1.1391,-6.61222 20.253796,20.253796 0 0 1 0.4778,-4.15071 z m 2.7895,15.23393 c -2.6081,2.60814 -3.5306,3.70475 -4.3935,6.03881 -0.8053,2.1784 -0.8259,5.16817 0.5166,6.99451 0.067,-1.03109 0.9391,-2.83416 2.7947,-2.76113 2.2805,0.0703 5.7721,0.88096 9.2597,-3.03749 l -0.155,-0.1369 a 20.253796,20.253796 0 0 1 -7.8856,-6.97382 z m 33.9884,0 -0.1395,0.12392 a 20.253796,20.253796 0 0 1 -7.8855,6.97382 l -0.155,0.1369 c 3.4875,3.91843 6.979,3.10777 9.2596,3.03748 1.8557,-0.073 2.7274,1.73003 2.7947,2.76113 1.3426,-1.82633 1.3219,-4.8161 0.5166,-6.9945 -0.8629,-2.33405 -1.7828,-3.43068 -4.3909,-6.03881 z m -23.6439,8.13355 c -0.3047,5.23687 2.739,7.13113 4.4013,8.69404 1.3638,1.26049 0.7048,3.15193 0.023,3.92859 2.2407,-0.34209 4.3395,-2.47226 5.3104,-4.58207 1.0403,-2.26057 1.1649,-3.68571 1.1649,-7.37418 l -0.1008,-0.005 a 20.253796,20.253796 0 0 1 -4.1507,0.47783 20.253796,20.253796 0 0 1 -6.6122,-1.13905 z" />
    <g
       id="g2559"
       transform="matrix(0.81361914,0,0,0.81361914,-3083.7819,7070.6645)"
       style="font-size:12px;font-family:Roboto">
      <ellipse
         class="st2"
         cx="4557.3818"
         cy="-8000.187"
         id="ellipse2517"
         style="fill:#e6e6e6;fill-opacity:1;stroke-width:0.379136"
         rx="31.999586"
         ry="31.998688" />
      <path
         id="path2519"
         style="fill:#cbcfd1;fill-opacity:1;fill-rule:evenodd;stroke-width:8.39419;stroke-linecap:round;stroke-linejoin:round;paint-order:stroke markers fill;stop-color:#000000"
         d="m 4557.383,-8032.1868 a 31.999613,31.998657 0 0 0 -32.0012,32.0007 31.999613,31.998657 0 0 0 32.0012,31.9981 31.999613,31.998657 0 0 0 1.7933,-0.1313 42.315851,42.217593 0 0 1 -14.5663,-31.8681 42.315851,42.217593 0 0 1 14.6454,-31.938 31.999613,31.998657 0 0 0 -1.8724,-0.062 z" />
      <ellipse
         transform="matrix(0.90458974,0.42628325,-0.42630279,0.90458053,0,0)"
         class="st3"
         cx="689.30695"
         cy="-9181.8145"
         rx="5.421792"
         ry="7.7723608"
         id="ellipse2521"
         style="fill:#b0b9bb;fill-opacity:1;stroke-width:0.379143" />
      <ellipse
         transform="matrix(0.7390121,-0.67369216,0.67371278,0.7389933,0,0)"
         class="st4"
         cx="8782.2686"
         cy="-2841.9583"
         rx="4.397975"
         ry="7.0519075"
         id="ellipse2523"
         style="fill:#95a5a5;fill-opacity:1;stroke-width:0.379136" />
      <ellipse
         transform="matrix(0.94942334,-0.31399891,0.31401477,0.9494181,0,0)"
         class="st4"
         cx="6855.2705"
         cy="-6164.502"
         rx="2.0852296"
         ry="3.3362925"
         id="ellipse2525"
         style="fill:#95a5a5;fill-opacity:1;stroke-width:0.379129" />
      <ellipse
         transform="matrix(0.3872077,-0.92199251,0.92200026,0.38718926,0,0)"
         class="st4"
         cx="9134.6172"
         cy="1103.7711"
         rx="2.0852394"
         ry="3.3364487"
         id="ellipse2527"
         style="fill:#95a5a5;fill-opacity:1;stroke-width:0.379139" />
      <ellipse
         transform="matrix(-0.37780463,-0.92588534,0.92589276,-0.37778645,0,0)"
         class="st4"
         cx="5677.7241"
         cy="7232.0063"
         rx="0.98575723"
         ry="1.5544944"
         id="ellipse2529"
         style="fill:#95a5a5;fill-opacity:1;stroke-width:0.379143" />
      <ellipse
         transform="matrix(0.61429744,-0.78907456,0.78909126,0.61427598,0,0)"
         class="st4"
         cx="9110.1807"
         cy="-1311.8669"
         rx="0.98577332"
         ry="1.5544994"
         id="ellipse2531"
         style="fill:#95a5a5;fill-opacity:1;stroke-width:0.379146" />
      <ellipse
         transform="matrix(0.61429744,-0.78907456,0.78909126,0.61427598,0,0)"
         class="st4"
         cx="9121.8857"
         cy="-1325.9923"
         rx="0.49288666"
         ry="0.79620695"
         id="ellipse2533"
         style="fill:#95a5a5;fill-opacity:1;stroke-width:0.379146" />
      <ellipse
         transform="matrix(0.61440814,-0.78898837,0.78900505,0.61438671,0,0)"
         class="st4"
         cx="9085.9854"
         cy="-1317.4055"
         rx="0.49287805"
         ry="0.79619306"
         id="ellipse2535"
         style="fill:#b0b9bb;fill-opacity:1;stroke-width:0.379139" />
      <ellipse
         transform="matrix(-0.54709575,-0.83707003,0.83708409,-0.54707424,0,0)"
         class="st4"
         cx="4186.6768"
         cy="8172.4888"
         rx="0.49288842"
         ry="0.79621333"
         id="ellipse2537"
         style="fill:#b0b9bb;fill-opacity:1;stroke-width:0.379146" />
      <ellipse
         transform="matrix(0.94939353,-0.31408903,0.31410489,0.94938829,0,0)"
         class="st4"
         cx="6813.0103"
         cy="-6169.2432"
         rx="1.4028349"
         ry="2.2748163"
         id="ellipse2539"
         style="fill:#b0b9bb;fill-opacity:1;stroke-width:0.379139" />
      <ellipse
         transform="matrix(0.949463,-0.31387896,0.31389482,0.94945776,0,0)"
         class="st4"
         cx="6815.3433"
         cy="-6167.1973"
         rx="0.94789201"
         ry="1.5165929"
         id="ellipse2541"
         style="fill:#b0b9bb;fill-opacity:1;stroke-width:0.379153" />
      <ellipse
         transform="matrix(-0.77723486,-0.62921059,0.6292319,-0.77721761,0,0)"
         class="st4"
         cx="1516.8607"
         cy="9095.5664"
         rx="0.9478125"
         ry="1.5164912"
         id="ellipse2543"
         style="fill:#b0b9bb;fill-opacity:1;stroke-width:0.379123" />
      <ellipse
         transform="matrix(-0.77718599,-0.62927095,0.62929226,-0.77716874,0,0)"
         class="st4"
         cx="1513.4709"
         cy="9099.5107"
         rx="0.41706374"
         ry="0.68246394"
         id="ellipse2545"
         style="fill:#b0b9bb;fill-opacity:1;stroke-width:0.379146" />
      <ellipse
         transform="matrix(-0.77718599,-0.62927095,0.62929226,-0.77716874,0,0)"
         class="st4"
         cx="1466.8156"
         cy="9074.5713"
         rx="1.0237019"
         ry="1.6303307"
         id="ellipse2547"
         style="fill:#95a5a5;fill-opacity:1;stroke-width:0.379146" />
      <ellipse
         transform="matrix(0.13230491,0.99120907,-0.99121004,0.13229761,0,0)"
         class="st4"
         cx="-7298.7363"
         cy="-5576.9941"
         rx="0.72034299"
         ry="1.1374145"
         id="ellipse2549"
         style="fill:#95a5a5;fill-opacity:1;stroke-width:0.379133" />
      <ellipse
         transform="matrix(-0.87279649,0.4880843,-0.48810515,-0.87278483,0,0)"
         class="st4"
         cx="-7877.1211"
         cy="4734.5288"
         rx="1.3649167"
         ry="2.1990004"
         id="ellipse2551"
         style="fill:#95a5a5;fill-opacity:1;stroke-width:0.379139" />
      <ellipse
         transform="matrix(0.65169905,0.75847765,-0.75849572,0.65167802,0,0)"
         class="st4"
         cx="-3076.3091"
         cy="-8667.9873"
         rx="1.3649131"
         ry="2.1990361"
         id="ellipse2553"
         style="fill:#95a5a5;fill-opacity:1;stroke-width:0.379143" />
      <ellipse
         transform="matrix(0.61631627,-0.78749873,0.78751549,0.61629486,0,0)"
         class="st4"
         cx="9084.6768"
         cy="-1354.6656"
         rx="1.7440071"
         ry="2.8055956"
         id="ellipse2555"
         style="fill:#b0b9bb;fill-opacity:1;stroke-width:0.379133" />
      <ellipse
         transform="matrix(0.89141216,0.45319351,-0.45321368,0.89140191,0,0)"
         class="st4"
         cx="456.56641"
         cy="-9210.4307"
         rx="2.0852525"
         ry="3.3363492"
         id="ellipse2557"
         style="fill:#95a5a5;fill-opacity:1;stroke-width:0.379133" />
    </g>
    <path
       id="path2622"
       style="font-size:12px;font-family:Roboto;fill:#ffd518;fill-opacity:1;stroke-width:0.147666"
       d="m 0,555.85526 v 9.77111 c 1.1701911,-0.15618 2.1665204,-0.43685 3.3500153,-0.98151 2.109814,-0.97089 4.2399805,-3.06973 4.5820703,-5.31043 -0.7766449,0.6815 -2.6681102,1.34054 -3.9285978,-0.0233 C 3.0491857,558.2962 1.8870616,556.82328 0,555.85526 Z" />
    <g
       id="g2679"
       transform="matrix(0.14895298,0,0,0.14895298,22.85461,1496.7429)"
       style="font-size:12px;font-family:Roboto">
      <path
         id="path2629"
         style="fill:#ffcc00"
         d="m 2347.4059,-6417.8564 c -12.3677,-9.0916 -32.6254,-8.9519 -47.3775,-3.4983 -15.8062,5.8434 -23.2214,12.079 -40.8838,29.7413 l 0.5206,0.5899 c 7.9455,5.0613 15.3485,10.9278 22.0916,17.5064 7.4235,7.4547 13.9641,15.7391 19.4936,24.6893 4.995,1.2455 9.9258,2.7351 14.7748,4.4636 17.3964,-20.8097 13.0952,-40.8999 12.674,-54.5673 -0.4947,-12.5664 11.7242,-18.4691 18.7066,-18.9248 z m -147.5671,-73.6055 c -15.1739,2.3166 -29.4006,16.7382 -35.9755,31.0257 -7.0328,15.2829 -7.8747,24.9443 -7.8776,49.829 24.4546,-5.187 49.8618,-3.5919 73.4756,4.6128 l 0.3274,0.021 c 2.0632,-35.464 -18.538,-48.2963 -29.7952,-58.8805 -9.2355,-8.5359 -4.7698,-21.3482 -0.1547,-26.6077 z m -89.4421,99.8472 c -17.6623,-17.6623 -25.0761,-23.8966 -40.8823,-29.7399 -14.7521,-5.4537 -35.0099,-5.5934 -47.3776,3.4982 6.9824,0.4556 19.2013,6.3583 18.7066,18.9247 -0.476,15.4442 -5.9717,39.0854 20.5641,62.7033 l 0.4681,-0.529 c 6.5554,-13.5955 15.3098,-26.0156 25.9103,-36.7598 6.7412,-6.5768 14.1418,-12.4419 22.0847,-17.5024 z m -59.7021,86.2987 c -24.8848,0 -34.5462,0.8446 -49.829,7.8776 -14.2876,6.5749 -28.7092,20.8014 -31.0257,35.9754 5.2594,-4.6151 18.0717,-9.0808 26.6077,0.1548 10.5841,11.2572 23.4166,31.8584 58.8804,29.7951 l -0.021,-0.3273 c -8.2047,-23.6138 -9.7998,-49.021 -4.6127,-73.4756 z m 10.7129,88.4836 c -26.5358,23.6179 -21.04,47.2592 -20.5641,62.7033 0.4947,12.5664 -11.7256,18.4677 -18.708,18.9234 12.3678,9.0915 32.6268,8.9532 47.379,3.4997 15.8061,-5.8435 23.22,-12.0776 40.8823,-29.74 l -0.5261,-0.5953 c -7.9435,-5.0608 -15.3445,-10.9262 -22.086,-17.5036 -10.5999,-10.7439 -19.3538,-23.1637 -25.9088,-36.7585 z"
         sodipodi:nodetypes="ssccccccsscsccccccsccccccccsccccccccsccccc" />
      <path
         id="path2631"
         style="fill:#ffcc00;fill-opacity:1;stroke:none;stroke-width:11.6385;stroke-linecap:round;stroke-linejoin:round;-inkscape-stroke:none;stop-color:#000000"
         d="m 2262.8059,-6354.5662 a 110.3585,110.3585 0 0 0 -156.069,-1e-4 110.3585,110.3585 0 0 0 0,156.0704 110.3585,110.3585 0 0 0 1.6338,1.4156 157.41299,157.41299 0 0 1 45.7051,-110.1484 157.41299,157.41299 0 0 1 110.2879,-45.7037 110.3585,110.3585 0 0 0 -1.5562,-1.634 z" />
      <circle
         style="fill:#003399;fill-opacity:0.67;stroke:none;stroke-width:13.7746;stroke-linecap:round;stroke-linejoin:round;-inkscape-stroke:none;stop-color:#000000"
         id="circle2633"
         cx="-2779.311"
         cy="-5983.0439"
         r="130.61301"
         transform="rotate(45)" />
      <g
         id="g2677"
         transform="matrix(13.403112,0,0,13.402872,-24861.796,70066.449)">
        <ellipse
           class="st2"
           cx="2023.9462"
           cy="-5690.002"
           id="ellipse2635"
           style="fill:#e6e6e6;fill-opacity:1;stroke-width:0.11546"
           rx="9.7448912"
           ry="9.7447882" />
        <path
           id="path2637"
           style="fill:#cbcfd1;fill-opacity:1;fill-rule:evenodd;stroke-width:2.55632;stroke-linecap:round;stroke-linejoin:round;paint-order:stroke markers fill;stop-color:#000000"
           d="m 2023.9465,-5699.7471 a 9.7448996,9.7447788 0 0 0 -9.7454,9.7454 9.7448996,9.7447788 0 0 0 9.7454,9.7446 9.7448996,9.7447788 0 0 0 0.5461,-0.04 12.886522,12.856824 0 0 1 -4.4359,-9.705 12.886522,12.856824 0 0 1 4.46,-9.7263 9.7448996,9.7447788 0 0 0 -0.5702,-0.019 z" />
        <ellipse
           transform="matrix(0.90458687,0.42628934,-0.42629669,0.9045834,0,0)"
           class="st3"
           cx="-601.71686"
           cy="-6010.5552"
           rx="1.6511133"
           ry="2.3669648"
           id="ellipse2639"
           style="fill:#b0b9bb;fill-opacity:1;stroke-width:0.115462" />
        <ellipse
           transform="matrix(0.73900623,-0.67369859,0.67370634,0.73899916,0,0)"
           class="st4"
           cx="5336.5659"
           cy="-2841.416"
           rx="1.3393339"
           ry="2.1475506"
           id="ellipse2641"
           style="fill:#95a5a5;fill-opacity:1;stroke-width:0.11546" />
        <ellipse
           transform="matrix(0.94942171,-0.31400385,0.31400982,0.94941973,0,0)"
           class="st4"
           cx="3713.2344"
           cy="-4766.6694"
           rx="0.63501984"
           ry="1.0160232"
           id="ellipse2643"
           style="fill:#95a5a5;fill-opacity:1;stroke-width:0.115458" />
        <ellipse
           transform="matrix(0.38720195,-0.92199493,0.92199784,0.38719501,0,0)"
           class="st4"
           cx="6027.9658"
           cy="-337.22345"
           rx="0.63503116"
           ry="1.0160574"
           id="ellipse2645"
           style="fill:#95a5a5;fill-opacity:1;stroke-width:0.115461" />
        <ellipse
           transform="matrix(-0.37779896,-0.92588765,0.92589044,-0.37779212,0,0)"
           class="st4"
           cx="4501.2896"
           cy="4020.5435"
           rx="0.30019891"
           ry="0.47339413"
           id="ellipse2647"
           style="fill:#95a5a5;fill-opacity:1;stroke-width:0.115462" />
        <ellipse
           transform="matrix(0.61429075,-0.78907977,0.78908606,0.61428266,0,0)"
           class="st4"
           cx="5732.5103"
           cy="-1896.2771"
           rx="0.30020258"
           ry="0.47339761"
           id="ellipse2649"
           style="fill:#95a5a5;fill-opacity:1;stroke-width:0.115463" />
        <ellipse
           transform="matrix(0.61429075,-0.78907977,0.78908606,0.61428266,0,0)"
           class="st4"
           cx="5736.0747"
           cy="-1900.5787"
           rx="0.15010129"
           ry="0.24247193"
           id="ellipse2651"
           style="fill:#95a5a5;fill-opacity:1;stroke-width:0.115463" />
        <ellipse
           transform="matrix(0.61440146,-0.78899356,0.78899984,0.6143934,0,0)"
           class="st4"
           cx="5724.9316"
           cy="-1898.3788"
           rx="0.15009867"
           ry="0.2424677"
           id="ellipse2653"
           style="fill:#b0b9bb;fill-opacity:1;stroke-width:0.115461" />
        <ellipse
           transform="matrix(-0.54708904,-0.83707442,0.83707971,-0.54708095,0,0)"
           class="st4"
           cx="3650.5681"
           cy="4801.2759"
           rx="0.15010203"
           ry="0.24247354"
           id="ellipse2655"
           style="fill:#b0b9bb;fill-opacity:1;stroke-width:0.115463" />
        <ellipse
           transform="matrix(0.9493919,-0.31409397,0.31409994,0.94938992,0,0)"
           class="st4"
           cx="3700.6389"
           cy="-4767.959"
           rx="0.42720857"
           ry="0.69276482"
           id="ellipse2657"
           style="fill:#b0b9bb;fill-opacity:1;stroke-width:0.115461" />
        <ellipse
           transform="matrix(0.94946137,-0.3138839,0.31388987,0.9494594,0,0)"
           class="st4"
           cx="3700.7102"
           cy="-4767.6958"
           rx="0.28866374"
           ry="0.46185803"
           id="ellipse2659"
           style="fill:#b0b9bb;fill-opacity:1;stroke-width:0.115465" />
        <ellipse
           transform="matrix(-0.77722948,-0.62921724,0.62922525,-0.777223,0,0)"
           class="st4"
           cx="2014.8383"
           cy="5698.981"
           rx="0.28864104"
           ry="0.46182466"
           id="ellipse2661"
           style="fill:#b0b9bb;fill-opacity:1;stroke-width:0.115456" />
        <ellipse
           transform="matrix(-0.77718061,-0.6292776,0.62928561,-0.77717413,0,0)"
           class="st4"
           cx="2014.0334"
           cy="5700.0615"
           rx="0.12701005"
           ry="0.20783415"
           id="ellipse2663"
           style="fill:#b0b9bb;fill-opacity:1;stroke-width:0.115463" />
        <ellipse
           transform="matrix(-0.77718061,-0.6292776,0.62928561,-0.77717413,0,0)"
           class="st4"
           cx="1999.8253"
           cy="5692.4668"
           rx="0.31175193"
           ry="0.49649277"
           id="ellipse2665"
           style="fill:#95a5a5;fill-opacity:1;stroke-width:0.115463" />
        <ellipse
           transform="matrix(0.13230264,0.99120937,-0.99120974,0.13229989,0,0)"
           class="st4"
           cx="-5363.6299"
           cy="-2759.3257"
           rx="0.21937111"
           ry="0.34637895"
           id="ellipse2667"
           style="fill:#95a5a5;fill-opacity:1;stroke-width:0.115459" />
        <ellipse
           transform="matrix(-0.87279286,0.4880908,-0.48809864,-0.87278847,0,0)"
           class="st4"
           cx="-4542.1069"
           cy="3971.1304"
           rx="0.41566226"
           ry="0.6696744"
           id="ellipse2669"
           style="fill:#95a5a5;fill-opacity:1;stroke-width:0.115461" />
        <ellipse
           transform="matrix(0.65169248,0.75848329,-0.75849008,0.65168459,0,0)"
           class="st4"
           cx="-2990.1807"
           cy="-5242.5303"
           rx="0.41566363"
           ry="0.66968137"
           id="ellipse2671"
           style="fill:#95a5a5;fill-opacity:1;stroke-width:0.115462" />
        <ellipse
           transform="matrix(0.61630959,-0.78750396,0.78751027,0.61630153,0,0)"
           class="st4"
           cx="5720.9004"
           cy="-1916.8817"
           rx="0.53111136"
           ry="0.85439873"
           id="ellipse2673"
           style="fill:#b0b9bb;fill-opacity:1;stroke-width:0.115459" />
        <ellipse
           transform="matrix(0.89140897,0.4531998,-0.45320739,0.89140511,0,0)"
           class="st4"
           cx="-768.53424"
           cy="-5993.5098"
           rx="0.63502795"
           ry="1.0160385"
           id="ellipse2675"
           style="fill:#95a5a5;fill-opacity:1;stroke-width:0.115459" />
      </g>
    </g>
  </g>
</svg>
