<?xml version="1.0" encoding="UTF-8"?>
<svg id="svg1495" style="font-family:Roboto;font-size:12px" version="1.1" viewBox="0 0 1296 648" xmlns="http://www.w3.org/2000/svg">
 <desc id="desc2">Created with Highmaps 4.2.7</desc>
 <g id="Layer-Shadow">
  <path id="shadow" d="m842.2 648 2.3086-2.5469 12.961-16.785 12.959-19.711 12.961-23.064 12.961-26.785 12.957-30.662 12.961-34.318 12.959-37.213 12.961-38.766 12.961-38.617 12.959-36.809 12.961-33.748 12.959-30.02 12.961-26.146 12.961-22.477 12.957-19.193 12.961-16.342 12.959-13.914 12.961-11.861 12.961-10.133 12.959-8.6699 12.961-7.4277 12.959-6.3652 12.961-5.4531 12.961-4.6543 12.957-3.9531 12.961-3.334 12.959-2.7754 12.961-2.2695 12.961-1.8008 12.959-1.3633 12.961-0.95118 12.959-0.55078 12.961-0.16015 12.961 0.22656 10.846 0.51562v-109.9h-1296v109.9l2.1133 0.10157 12.961 1.0176 12.957 1.4336 12.963 1.877 12.961 2.3496 12.957 2.8652 12.961 3.4336 12.959 4.0644 12.961 4.7812 12.961 5.5918 12.959 6.5312 12.961 7.623 12.957 8.8984 12.961 10.398 12.961 12.182 12.959 14.291 12.961 16.785 12.959 19.711 12.961 23.064 12.961 26.785 12.959 30.662 12.961 34.318 12.957 37.211 12.961 38.768 12.961 38.619 12.959 36.807 12.961 33.748 12.959 30.02 12.961 26.146 12.961 22.479 12.959 19.191 12.962 16.343z" style="fill:#0b1f46;opacity:.4;stroke-width:9.1726"/>
  <g id="g3364" transform="matrix(.14895 0 0 .14895 562 1496.7)">
   <path id="path3314" d="m2347.4-6417.9c-12.368-9.0916-32.625-8.9519-47.378-3.4983-15.806 5.8434-23.221 12.079-40.884 29.741l0.5206 0.5899c7.9455 5.0613 15.348 10.928 22.092 17.506 7.4235 7.4547 13.964 15.739 19.494 24.689 4.995 1.2455 9.9258 2.7351 14.775 4.4636 17.396-20.81 13.095-40.9 12.674-54.567-0.4947-12.566 11.724-18.469 18.707-18.925zm-147.57-73.606c-15.174 2.3166-29.401 16.738-35.976 31.026-7.0328 15.283-7.8747 24.944-7.8776 49.829 24.455-5.187 49.862-3.5919 73.476 4.6128l0.3274 0.021c2.0632-35.464-18.538-48.296-29.795-58.88-9.2355-8.5359-4.7698-21.348-0.1547-26.608zm-89.442 99.847c-17.662-17.662-25.076-23.897-40.882-29.74-14.752-5.4537-35.01-5.5934-47.378 3.4982 6.9824 0.4556 19.201 6.3583 18.707 18.925-0.476 15.444-5.9717 39.085 20.564 62.703l0.4681-0.529c6.5554-13.596 15.31-26.016 25.91-36.76 6.7412-6.5768 14.142-12.442 22.085-17.502zm-59.702 86.299c-24.885 0-34.546 0.8446-49.829 7.8776-14.288 6.5749-28.709 20.801-31.026 35.975 5.2594-4.6151 18.072-9.0808 26.608 0.1548 10.584 11.257 23.417 31.858 58.88 29.795l-0.021-0.3273c-8.2047-23.614-9.7998-49.021-4.6127-73.476zm10.713 88.484c-26.536 23.618-21.04 47.259-20.564 62.703 0.4947 12.566-11.726 18.468-18.708 18.923 12.368 9.0915 32.627 8.9532 47.379 3.4997 15.806-5.8435 23.22-12.078 40.882-29.74l-0.5261-0.5953c-7.9435-5.0608-15.344-10.926-22.086-17.504-10.6-10.744-19.354-23.164-25.909-36.758z" style="fill:#ffcc00"/>
   <path id="path3316" d="m2262.8-6354.6a110.36 110.36 0 0 0-156.07-1e-4 110.36 110.36 0 0 0 0 156.07 110.36 110.36 0 0 0 1.6338 1.4156 157.41 157.41 0 0 1 45.705-110.15 157.41 157.41 0 0 1 110.29-45.704 110.36 110.36 0 0 0-1.5562-1.634z" style="-inkscape-stroke:none;fill:#ffcc00;stop-color:#000000"/>
   <circle id="circle3318" transform="rotate(45)" cx="-2779.3" cy="-5983" r="130.61" style="-inkscape-stroke:none;fill-opacity:.67;fill:#003399;stop-color:#000000"/>
   <g id="g3362" transform="matrix(13.403 0 0 13.403 -24862 70066)">
    <ellipse id="ellipse3320" class="st2" cx="2023.9" cy="-5690" rx="9.7449" ry="9.7448" style="fill:#e6e6e6;stroke-width:.11546"/>
    <path id="path3322" d="m2023.9-5699.7a9.7449 9.7448 0 0 0-9.7454 9.7454 9.7449 9.7448 0 0 0 9.7454 9.7446 9.7449 9.7448 0 0 0 0.5461-0.04 12.887 12.857 0 0 1-4.4359-9.705 12.887 12.857 0 0 1 4.46-9.7263 9.7449 9.7448 0 0 0-0.5702-0.019z" style="fill-rule:evenodd;fill:#cbcfd1;paint-order:stroke markers fill;stop-color:#000000;stroke-linecap:round;stroke-linejoin:round;stroke-width:2.5563"/>
    <ellipse id="ellipse3324" class="st3" transform="matrix(.90459 .42629 -.4263 .90458 0 0)" cx="-601.72" cy="-6010.6" rx="1.6511" ry="2.367" style="fill:#b0b9bb;stroke-width:.11546"/>
    <ellipse id="ellipse3326" class="st4" transform="matrix(.73901 -.6737 .67371 .739 0 0)" cx="5336.6" cy="-2841.4" rx="1.3393" ry="2.1476" style="fill:#95a5a5;stroke-width:.11546"/>
    <ellipse id="ellipse3328" class="st4" transform="matrix(.94942 -.314 .31401 .94942 0 0)" cx="3713.2" cy="-4766.7" rx=".63502" ry="1.016" style="fill:#95a5a5;stroke-width:.11546"/>
    <ellipse id="ellipse3330" class="st4" transform="matrix(.3872 -.92199 .922 .3872 0 0)" cx="6028" cy="-337.22" rx=".63503" ry="1.0161" style="fill:#95a5a5;stroke-width:.11546"/>
    <ellipse id="ellipse3332" class="st4" transform="matrix(-.3778 -.92589 .92589 -.37779 0 0)" cx="4501.3" cy="4020.5" rx=".3002" ry=".47339" style="fill:#95a5a5;stroke-width:.11546"/>
    <ellipse id="ellipse3334" class="st4" transform="matrix(.61429 -.78908 .78909 .61428 0 0)" cx="5732.5" cy="-1896.3" rx=".3002" ry=".4734" style="fill:#95a5a5;stroke-width:.11546"/>
    <ellipse id="ellipse3336" class="st4" transform="matrix(.61429 -.78908 .78909 .61428 0 0)" cx="5736.1" cy="-1900.6" rx=".1501" ry=".24247" style="fill:#95a5a5;stroke-width:.11546"/>
    <ellipse id="ellipse3338" class="st4" transform="matrix(.6144 -.78899 .789 .61439 0 0)" cx="5724.9" cy="-1898.4" rx=".1501" ry=".24247" style="fill:#b0b9bb;stroke-width:.11546"/>
    <ellipse id="ellipse3340" class="st4" transform="matrix(-.54709 -.83707 .83708 -.54708 0 0)" cx="3650.6" cy="4801.3" rx=".1501" ry=".24247" style="fill:#b0b9bb;stroke-width:.11546"/>
    <ellipse id="ellipse3342" class="st4" transform="matrix(.94939 -.31409 .3141 .94939 0 0)" cx="3700.6" cy="-4768" rx=".42721" ry=".69276" style="fill:#b0b9bb;stroke-width:.11546"/>
    <ellipse id="ellipse3344" class="st4" transform="matrix(.94946 -.31388 .31389 .94946 0 0)" cx="3700.7" cy="-4767.7" rx=".28866" ry=".46186" style="fill:#b0b9bb;stroke-width:.11546"/>
    <ellipse id="ellipse3346" class="st4" transform="matrix(-.77723 -.62922 .62923 -.77722 0 0)" cx="2014.8" cy="5699" rx=".28864" ry=".46182" style="fill:#b0b9bb;stroke-width:.11546"/>
    <ellipse id="ellipse3348" class="st4" transform="matrix(-.77718 -.62928 .62929 -.77717 0 0)" cx="2014" cy="5700.1" rx=".12701" ry=".20783" style="fill:#b0b9bb;stroke-width:.11546"/>
    <ellipse id="ellipse3350" class="st4" transform="matrix(-.77718 -.62928 .62929 -.77717 0 0)" cx="1999.8" cy="5692.5" rx=".31175" ry=".49649" style="fill:#95a5a5;stroke-width:.11546"/>
    <ellipse id="ellipse3352" class="st4" transform="matrix(.1323 .99121 -.99121 .1323 0 0)" cx="-5363.6" cy="-2759.3" rx=".21937" ry=".34638" style="fill:#95a5a5;stroke-width:.11546"/>
    <ellipse id="ellipse3354" class="st4" transform="matrix(-.87279 .48809 -.4881 -.87279 0 0)" cx="-4542.1" cy="3971.1" rx=".41566" ry=".66967" style="fill:#95a5a5;stroke-width:.11546"/>
    <ellipse id="ellipse3356" class="st4" transform="matrix(.65169 .75848 -.75849 .65168 0 0)" cx="-2990.2" cy="-5242.5" rx=".41566" ry=".66968" style="fill:#95a5a5;stroke-width:.11546"/>
    <ellipse id="ellipse3358" class="st4" transform="matrix(.61631 -.7875 .78751 .6163 0 0)" cx="5720.9" cy="-1916.9" rx=".53111" ry=".8544" style="fill:#b0b9bb;stroke-width:.11546"/>
    <ellipse id="ellipse3360" class="st4" transform="matrix(.89141 .4532 -.45321 .89141 0 0)" cx="-768.53" cy="-5993.5" rx=".63503" ry="1.016" style="fill:#95a5a5;stroke-width:.11546"/>
   </g>
  </g>
  <path id="path2511" d="m1274.4 529.82c-2.2398 0.34327-4.3399 2.473-5.3105 4.5821-1.0403 2.2606-1.1649 3.6857-1.1649 7.3742l0.1008 8e-3a20.254 20.254 0 0 1 4.1507-0.47783 20.254 20.254 0 0 1 6.6484 1.1313c0.3013-5.231-2.7397-7.1242-4.4012-8.6863-1.3638-1.2605-0.7048-3.1545-0.023-3.9312zm-23.094 7.7229c-1.3425 1.8263-1.3219 4.8187-0.5166 6.9971 0.8629 2.3341 1.7854 3.4281 4.3935 6.0362l0.1369-0.12392a20.254 20.254 0 0 1 7.8856-6.9738l0.155-0.13689c-3.4876-3.9185-6.9792-3.1052-9.2597-3.0349-1.8556 0.073-2.7274-1.7326-2.7947-2.7637zm41.74 0c-0.067 1.0311-0.939 2.8368-2.7947 2.7637-2.2794-0.0702-5.7687-0.88204-9.2544 3.0297a20.254 20.254 0 0 1 8.1799 7.2321c2.6014-2.6018 3.5239-3.6971 4.3858-6.0285 0.8053-2.1784 0.8259-5.1708-0.5166-6.9971zm-20.87 7.7203a16.296 16.296 0 0 0-16.296 16.296 16.296 16.296 0 0 0 16.296 16.295 16.296 16.296 0 0 0 16.296-16.295 16.296 16.296 0 0 0-16.296-16.296zm20.059 9.629c-0.2995-5e-3 -0.6131-6.6e-4 -0.9376 0.0181a20.254 20.254 0 0 1 1.1339 6.6484 20.254 20.254 0 0 1-0.4779 4.1507l0.01 0.10077c1.7574 0 2.9592-0.0413 4.0242-0.18338v-9.7711c-1.0103-0.51827-2.1685-0.93228-3.7478-0.96342zm-39.841 2.415c-3.6885 0-5.1136 0.12458-7.3742 1.1649-2.1098 0.97092-4.24 3.0723-4.582 5.313 0.7766-0.6815 2.6681-1.3431 3.9285 0.0206 1.563 1.6623 3.4598 4.7059 8.6967 4.4012v-0.0361a20.254 20.254 0 0 1-1.1391-6.6122 20.254 20.254 0 0 1 0.4778-4.1507zm2.7895 15.234c-2.6081 2.6081-3.5306 3.7048-4.3935 6.0388-0.8053 2.1784-0.8259 5.1682 0.5166 6.9945 0.067-1.0311 0.9391-2.8342 2.7947-2.7611 2.2805 0.0703 5.7721 0.88096 9.2597-3.0375l-0.155-0.1369a20.254 20.254 0 0 1-7.8856-6.9738zm33.988 0-0.1395 0.12392a20.254 20.254 0 0 1-7.8855 6.9738l-0.155 0.1369c3.4875 3.9184 6.979 3.1078 9.2596 3.0375 1.8557-0.073 2.7274 1.73 2.7947 2.7611 1.3426-1.8263 1.3219-4.8161 0.5166-6.9945-0.8629-2.334-1.7828-3.4307-4.3909-6.0388zm-23.644 8.1336c-0.3047 5.2369 2.739 7.1311 4.4013 8.694 1.3638 1.2605 0.7048 3.1519 0.023 3.9286 2.2407-0.34209 4.3395-2.4723 5.3104-4.5821 1.0403-2.2606 1.1649-3.6857 1.1649-7.3742l-0.1008-5e-3a20.254 20.254 0 0 1-4.1507 0.47783 20.254 20.254 0 0 1-6.6122-1.139z" style="fill:#ffd518;stroke-width:.14767"/>
  <g id="g2559" transform="matrix(.81362 0 0 .81362 -3083.8 7070.7)">
   <ellipse id="ellipse2517" class="st2" cx="4557.4" cy="-8000.2" rx="32" ry="31.999" style="fill:#e6e6e6;stroke-width:.37914"/>
   <path id="path2519" d="m4557.4-8032.2a32 31.999 0 0 0-32.001 32.001 32 31.999 0 0 0 32.001 31.998 32 31.999 0 0 0 1.7933-0.1313 42.316 42.218 0 0 1-14.566-31.868 42.316 42.218 0 0 1 14.645-31.938 32 31.999 0 0 0-1.8724-0.062z" style="fill-rule:evenodd;fill:#cbcfd1;paint-order:stroke markers fill;stop-color:#000000;stroke-linecap:round;stroke-linejoin:round;stroke-width:8.3942"/>
   <ellipse id="ellipse2521" class="st3" transform="matrix(.90459 .42628 -.4263 .90458 0 0)" cx="689.31" cy="-9181.8" rx="5.4218" ry="7.7724" style="fill:#b0b9bb;stroke-width:.37914"/>
   <ellipse id="ellipse2523" class="st4" transform="matrix(.73901 -.67369 .67371 .73899 0 0)" cx="8782.3" cy="-2842" rx="4.398" ry="7.0519" style="fill:#95a5a5;stroke-width:.37914"/>
   <ellipse id="ellipse2525" class="st4" transform="matrix(.94942 -.314 .31401 .94942 0 0)" cx="6855.3" cy="-6164.5" rx="2.0852" ry="3.3363" style="fill:#95a5a5;stroke-width:.37913"/>
   <ellipse id="ellipse2527" class="st4" transform="matrix(.38721 -.92199 .922 .38719 0 0)" cx="9134.6" cy="1103.8" rx="2.0852" ry="3.3364" style="fill:#95a5a5;stroke-width:.37914"/>
   <ellipse id="ellipse2529" class="st4" transform="matrix(-.3778 -.92589 .92589 -.37779 0 0)" cx="5677.7" cy="7232" rx=".98576" ry="1.5545" style="fill:#95a5a5;stroke-width:.37914"/>
   <ellipse id="ellipse2531" class="st4" transform="matrix(.6143 -.78907 .78909 .61428 0 0)" cx="9110.2" cy="-1311.9" rx=".98577" ry="1.5545" style="fill:#95a5a5;stroke-width:.37915"/>
   <ellipse id="ellipse2533" class="st4" transform="matrix(.6143 -.78907 .78909 .61428 0 0)" cx="9121.9" cy="-1326" rx=".49289" ry=".79621" style="fill:#95a5a5;stroke-width:.37915"/>
   <ellipse id="ellipse2535" class="st4" transform="matrix(.61441 -.78899 .78901 .61439 0 0)" cx="9086" cy="-1317.4" rx=".49288" ry=".79619" style="fill:#b0b9bb;stroke-width:.37914"/>
   <ellipse id="ellipse2537" class="st4" transform="matrix(-.5471 -.83707 .83708 -.54707 0 0)" cx="4186.7" cy="8172.5" rx=".49289" ry=".79621" style="fill:#b0b9bb;stroke-width:.37915"/>
   <ellipse id="ellipse2539" class="st4" transform="matrix(.94939 -.31409 .3141 .94939 0 0)" cx="6813" cy="-6169.2" rx="1.4028" ry="2.2748" style="fill:#b0b9bb;stroke-width:.37914"/>
   <ellipse id="ellipse2541" class="st4" transform="matrix(.94946 -.31388 .31389 .94946 0 0)" cx="6815.3" cy="-6167.2" rx=".94789" ry="1.5166" style="fill:#b0b9bb;stroke-width:.37915"/>
   <ellipse id="ellipse2543" class="st4" transform="matrix(-.77723 -.62921 .62923 -.77722 0 0)" cx="1516.9" cy="9095.6" rx=".94781" ry="1.5165" style="fill:#b0b9bb;stroke-width:.37912"/>
   <ellipse id="ellipse2545" class="st4" transform="matrix(-.77719 -.62927 .62929 -.77717 0 0)" cx="1513.5" cy="9099.5" rx=".41706" ry=".68246" style="fill:#b0b9bb;stroke-width:.37915"/>
   <ellipse id="ellipse2547" class="st4" transform="matrix(-.77719 -.62927 .62929 -.77717 0 0)" cx="1466.8" cy="9074.6" rx="1.0237" ry="1.6303" style="fill:#95a5a5;stroke-width:.37915"/>
   <ellipse id="ellipse2549" class="st4" transform="matrix(.1323 .99121 -.99121 .1323 0 0)" cx="-7298.7" cy="-5577" rx=".72034" ry="1.1374" style="fill:#95a5a5;stroke-width:.37913"/>
   <ellipse id="ellipse2551" class="st4" transform="matrix(-.8728 .48808 -.48811 -.87278 0 0)" cx="-7877.1" cy="4734.5" rx="1.3649" ry="2.199" style="fill:#95a5a5;stroke-width:.37914"/>
   <ellipse id="ellipse2553" class="st4" transform="matrix(.6517 .75848 -.7585 .65168 0 0)" cx="-3076.3" cy="-8668" rx="1.3649" ry="2.199" style="fill:#95a5a5;stroke-width:.37914"/>
   <ellipse id="ellipse2555" class="st4" transform="matrix(.61632 -.7875 .78752 .61629 0 0)" cx="9084.7" cy="-1354.7" rx="1.744" ry="2.8056" style="fill:#b0b9bb;stroke-width:.37913"/>
   <ellipse id="ellipse2557" class="st4" transform="matrix(.89141 .45319 -.45321 .8914 0 0)" cx="456.57" cy="-9210.4" rx="2.0853" ry="3.3363" style="fill:#95a5a5;stroke-width:.37913"/>
  </g>
  <path id="path2622" d="m0 555.86v9.7711c1.1702-0.15618 2.1665-0.43685 3.35-0.98151 2.1098-0.97089 4.24-3.0697 4.5821-5.3104-0.77664 0.6815-2.6681 1.3405-3.9286-0.0233-0.9543-1.0149-2.1164-2.4878-4.0035-3.4559z" style="fill:#ffd518;stroke-width:.14767"/>
  <g id="g2679" transform="matrix(.14895 0 0 .14895 22.855 1496.7)">
   <path id="path2629" d="m2347.4-6417.9c-12.368-9.0916-32.625-8.9519-47.378-3.4983-15.806 5.8434-23.221 12.079-40.884 29.741l0.5206 0.5899c7.9455 5.0613 15.348 10.928 22.092 17.506 7.4235 7.4547 13.964 15.739 19.494 24.689 4.995 1.2455 9.9258 2.7351 14.775 4.4636 17.396-20.81 13.095-40.9 12.674-54.567-0.4947-12.566 11.724-18.469 18.707-18.925zm-147.57-73.606c-15.174 2.3166-29.401 16.738-35.976 31.026-7.0328 15.283-7.8747 24.944-7.8776 49.829 24.455-5.187 49.862-3.5919 73.476 4.6128l0.3274 0.021c2.0632-35.464-18.538-48.296-29.795-58.88-9.2355-8.5359-4.7698-21.348-0.1547-26.608zm-89.442 99.847c-17.662-17.662-25.076-23.897-40.882-29.74-14.752-5.4537-35.01-5.5934-47.378 3.4982 6.9824 0.4556 19.201 6.3583 18.707 18.925-0.476 15.444-5.9717 39.085 20.564 62.703l0.4681-0.529c6.5554-13.596 15.31-26.016 25.91-36.76 6.7412-6.5768 14.142-12.442 22.085-17.502zm-59.702 86.299c-24.885 0-34.546 0.8446-49.829 7.8776-14.288 6.5749-28.709 20.801-31.026 35.975 5.2594-4.6151 18.072-9.0808 26.608 0.1548 10.584 11.257 23.417 31.858 58.88 29.795l-0.021-0.3273c-8.2047-23.614-9.7998-49.021-4.6127-73.476zm10.713 88.484c-26.536 23.618-21.04 47.259-20.564 62.703 0.4947 12.566-11.726 18.468-18.708 18.923 12.368 9.0915 32.627 8.9532 47.379 3.4997 15.806-5.8435 23.22-12.078 40.882-29.74l-0.5261-0.5953c-7.9435-5.0608-15.344-10.926-22.086-17.504-10.6-10.744-19.354-23.164-25.909-36.758z" style="fill:#ffcc00"/>
   <path id="path2631" d="m2262.8-6354.6a110.36 110.36 0 0 0-156.07-1e-4 110.36 110.36 0 0 0 0 156.07 110.36 110.36 0 0 0 1.6338 1.4156 157.41 157.41 0 0 1 45.705-110.15 157.41 157.41 0 0 1 110.29-45.704 110.36 110.36 0 0 0-1.5562-1.634z" style="-inkscape-stroke:none;fill:#ffcc00;stop-color:#000000"/>
   <circle id="circle2633" transform="rotate(45)" cx="-2779.3" cy="-5983" r="130.61" style="-inkscape-stroke:none;fill-opacity:.67;fill:#003399;stop-color:#000000"/>
   <g id="g2677" transform="matrix(13.403 0 0 13.403 -24862 70066)">
    <ellipse id="ellipse2635" class="st2" cx="2023.9" cy="-5690" rx="9.7449" ry="9.7448" style="fill:#e6e6e6;stroke-width:.11546"/>
    <path id="path2637" d="m2023.9-5699.7a9.7449 9.7448 0 0 0-9.7454 9.7454 9.7449 9.7448 0 0 0 9.7454 9.7446 9.7449 9.7448 0 0 0 0.5461-0.04 12.887 12.857 0 0 1-4.4359-9.705 12.887 12.857 0 0 1 4.46-9.7263 9.7449 9.7448 0 0 0-0.5702-0.019z" style="fill-rule:evenodd;fill:#cbcfd1;paint-order:stroke markers fill;stop-color:#000000;stroke-linecap:round;stroke-linejoin:round;stroke-width:2.5563"/>
    <ellipse id="ellipse2639" class="st3" transform="matrix(.90459 .42629 -.4263 .90458 0 0)" cx="-601.72" cy="-6010.6" rx="1.6511" ry="2.367" style="fill:#b0b9bb;stroke-width:.11546"/>
    <ellipse id="ellipse2641" class="st4" transform="matrix(.73901 -.6737 .67371 .739 0 0)" cx="5336.6" cy="-2841.4" rx="1.3393" ry="2.1476" style="fill:#95a5a5;stroke-width:.11546"/>
    <ellipse id="ellipse2643" class="st4" transform="matrix(.94942 -.314 .31401 .94942 0 0)" cx="3713.2" cy="-4766.7" rx=".63502" ry="1.016" style="fill:#95a5a5;stroke-width:.11546"/>
    <ellipse id="ellipse2645" class="st4" transform="matrix(.3872 -.92199 .922 .3872 0 0)" cx="6028" cy="-337.22" rx=".63503" ry="1.0161" style="fill:#95a5a5;stroke-width:.11546"/>
    <ellipse id="ellipse2647" class="st4" transform="matrix(-.3778 -.92589 .92589 -.37779 0 0)" cx="4501.3" cy="4020.5" rx=".3002" ry=".47339" style="fill:#95a5a5;stroke-width:.11546"/>
    <ellipse id="ellipse2649" class="st4" transform="matrix(.61429 -.78908 .78909 .61428 0 0)" cx="5732.5" cy="-1896.3" rx=".3002" ry=".4734" style="fill:#95a5a5;stroke-width:.11546"/>
    <ellipse id="ellipse2651" class="st4" transform="matrix(.61429 -.78908 .78909 .61428 0 0)" cx="5736.1" cy="-1900.6" rx=".1501" ry=".24247" style="fill:#95a5a5;stroke-width:.11546"/>
    <ellipse id="ellipse2653" class="st4" transform="matrix(.6144 -.78899 .789 .61439 0 0)" cx="5724.9" cy="-1898.4" rx=".1501" ry=".24247" style="fill:#b0b9bb;stroke-width:.11546"/>
    <ellipse id="ellipse2655" class="st4" transform="matrix(-.54709 -.83707 .83708 -.54708 0 0)" cx="3650.6" cy="4801.3" rx=".1501" ry=".24247" style="fill:#b0b9bb;stroke-width:.11546"/>
    <ellipse id="ellipse2657" class="st4" transform="matrix(.94939 -.31409 .3141 .94939 0 0)" cx="3700.6" cy="-4768" rx=".42721" ry=".69276" style="fill:#b0b9bb;stroke-width:.11546"/>
    <ellipse id="ellipse2659" class="st4" transform="matrix(.94946 -.31388 .31389 .94946 0 0)" cx="3700.7" cy="-4767.7" rx=".28866" ry=".46186" style="fill:#b0b9bb;stroke-width:.11546"/>
    <ellipse id="ellipse2661" class="st4" transform="matrix(-.77723 -.62922 .62923 -.77722 0 0)" cx="2014.8" cy="5699" rx=".28864" ry=".46182" style="fill:#b0b9bb;stroke-width:.11546"/>
    <ellipse id="ellipse2663" class="st4" transform="matrix(-.77718 -.62928 .62929 -.77717 0 0)" cx="2014" cy="5700.1" rx=".12701" ry=".20783" style="fill:#b0b9bb;stroke-width:.11546"/>
    <ellipse id="ellipse2665" class="st4" transform="matrix(-.77718 -.62928 .62929 -.77717 0 0)" cx="1999.8" cy="5692.5" rx=".31175" ry=".49649" style="fill:#95a5a5;stroke-width:.11546"/>
    <ellipse id="ellipse2667" class="st4" transform="matrix(.1323 .99121 -.99121 .1323 0 0)" cx="-5363.6" cy="-2759.3" rx=".21937" ry=".34638" style="fill:#95a5a5;stroke-width:.11546"/>
    <ellipse id="ellipse2669" class="st4" transform="matrix(-.87279 .48809 -.4881 -.87279 0 0)" cx="-4542.1" cy="3971.1" rx=".41566" ry=".66967" style="fill:#95a5a5;stroke-width:.11546"/>
    <ellipse id="ellipse2671" class="st4" transform="matrix(.65169 .75848 -.75849 .65168 0 0)" cx="-2990.2" cy="-5242.5" rx=".41566" ry=".66968" style="fill:#95a5a5;stroke-width:.11546"/>
    <ellipse id="ellipse2673" class="st4" transform="matrix(.61631 -.7875 .78751 .6163 0 0)" cx="5720.9" cy="-1916.9" rx=".53111" ry=".8544" style="fill:#b0b9bb;stroke-width:.11546"/>
    <ellipse id="ellipse2675" class="st4" transform="matrix(.89141 .4532 -.45321 .89141 0 0)" cx="-768.53" cy="-5993.5" rx=".63503" ry="1.016" style="fill:#95a5a5;stroke-width:.11546"/>
   </g>
  </g>
 </g>
</svg>
