<?xml version="1.0" encoding="UTF-8" standalone="no"?>
<svg
   version="1.1"
   style="font-family:Roboto;font-size:12px;"
   width="980"
   height="490"
   id="svg1495"
   sodipodi:docname="map-hn-la-br-fr-ru-in-kr-jp-bc-us-es-sa-ma-uk-cn-au-v1.2.1 Export-Shadow.svg"
   inkscape:version="1.1.1 (3bf5ae0d25, 2021-09-20)"
   xmlns:inkscape="http://www.inkscape.org/namespaces/inkscape"
   xmlns:sodipodi="http://sodipodi.sourceforge.net/DTD/sodipodi-0.dtd"
   xmlns="http://www.w3.org/2000/svg"
   xmlns:svg="http://www.w3.org/2000/svg">
  <sodipodi:namedview
     id="namedview1497"
     pagecolor="#ffffff"
     bordercolor="#666666"
     borderopacity="1.0"
     inkscape:pageshadow="2"
     inkscape:pageopacity="0.0"
     inkscape:pagecheckerboard="0"
     showgrid="false"
     inkscape:zoom="1.0678572"
     inkscape:cx="507.0903"
     inkscape:cy="289.36455"
     inkscape:window-width="2775"
     inkscape:window-height="2088"
     inkscape:window-x="939"
     inkscape:window-y="0"
     inkscape:window-maximized="0"
     inkscape:current-layer="Layer-Shadow"
     inkscape:snap-intersection-paths="true"
     inkscape:object-paths="true"
     inkscape:snap-midpoints="false"
     inkscape:snap-smooth-nodes="false"
     inkscape:snap-global="true"
     inkscape:showpageshadow="false"
     showguides="false" />
  <desc
     id="desc2">Created with Highmaps 4.2.7</desc>
  <defs
     id="defs7" />
  <g
     inkscape:groupmode="layer"
     id="Layer-Shadow"
     inkscape:label="Shadow"
     style="display:inline">
    <path
       id="shadow"
       style="font-size:12px;font-family:Roboto;opacity:0.4;fill:#0b1f46;stroke-width:6.93611"
       d="m 0,0 v 83.105469 l 1.5976562,0.07617 9.8007818,0.769531 9.798828,1.083984 9.800781,1.419922 9.800781,1.777344 9.798828,2.166016 9.800782,2.595703 9.798828,3.074218 9.800781,3.615235 9.800781,4.228518 9.798828,4.93945 9.800784,5.76367 9.79883,6.72852 9.80078,7.86328 9.80078,9.21094 9.79883,10.80664 9.80078,12.69336 9.79883,14.9043 9.80078,17.4414 9.80078,20.25391 9.79883,23.18554 9.80078,25.95118 9.79883,28.13867 9.80078,29.31445 9.80078,29.20313 9.79883,27.83203 9.80078,25.51953 9.79883,22.69922 9.80078,19.77148 9.80078,16.99805 9.79883,14.51172 9.80078,12.35742 9.79883,10.52148 9.80078,8.97071 9.80078,7.66015 9.79883,6.55664 9.80078,5.61719 9.79883,4.8125 9.80078,4.12305 9.80078,3.51953 9.79883,2.99023 9.80078,2.52149 9.79883,2.09961 9.80078,1.71484 9.80078,1.36133 9.79883,1.03125 9.80078,0.71875 9.79883,0.41602 9.80078,0.12304 9.80078,-0.17187 9.79883,-0.46485 9.80078,-0.76953 9.79883,-1.08594 9.80078,-1.41796 9.80078,-1.77735 9.79883,-2.16797 9.80078,-2.5957 9.79883,-3.07422 9.80078,-3.61328 9.80078,-4.23047 9.79883,-4.93945 9.80078,-5.76367 9.79883,-6.72657 9.80078,-7.86523 9.80078,-9.21094 9.79883,-10.80664 9.80078,-12.69336 9.79883,-14.90429 9.80078,-17.44141 9.80078,-20.25391 9.79883,-23.18554 9.80078,-25.95118 9.79883,-28.13867 9.80078,-29.31445 9.80078,-29.20117 9.79883,-27.83399 9.80078,-25.51953 9.79883,-22.69922 9.80078,-19.77148 9.80078,-16.99609 9.79883,-14.51368 9.80078,-12.35742 9.79883,-10.52148 9.80078,-8.96875 9.80078,-7.66211 9.79883,-6.55664 9.80078,-5.61719 9.79883,-4.8125 9.80078,-4.12305 9.80078,-3.519531 9.79883,-2.990234 9.80078,-2.521485 9.79883,-2.097656 9.80078,-1.716797 9.80078,-1.361328 9.79883,-1.03125 9.80078,-0.71875 9.79883,-0.416015 9.80078,-0.121094 9.80078,0.169922 L 980,83.105469 V 0 Z" />
    <g
       id="g3364"
       transform="matrix(0.11263462,0,0,0.11263462,424.96997,1131.8005)"
       style="font-size:12px;font-family:Roboto">
      <path
         id="path3314"
         style="fill:#ffcc00"
         d="m 2347.4059,-6417.8564 c -12.3677,-9.0916 -32.6254,-8.9519 -47.3775,-3.4983 -15.8062,5.8434 -23.2214,12.079 -40.8838,29.7413 l 0.5206,0.5899 c 7.9455,5.0613 15.3485,10.9278 22.0916,17.5064 7.4235,7.4547 13.9641,15.7391 19.4936,24.6893 4.995,1.2455 9.9258,2.7351 14.7748,4.4636 17.3964,-20.8097 13.0952,-40.8999 12.674,-54.5673 -0.4947,-12.5664 11.7242,-18.4691 18.7066,-18.9248 z m -147.5671,-73.6055 c -15.1739,2.3166 -29.4006,16.7382 -35.9755,31.0257 -7.0328,15.2829 -7.8747,24.9443 -7.8776,49.829 24.4546,-5.187 49.8618,-3.5919 73.4756,4.6128 l 0.3274,0.021 c 2.0632,-35.464 -18.538,-48.2963 -29.7952,-58.8805 -9.2355,-8.5359 -4.7698,-21.3482 -0.1547,-26.6077 z m -89.4421,99.8472 c -17.6623,-17.6623 -25.0761,-23.8966 -40.8823,-29.7399 -14.7521,-5.4537 -35.0099,-5.5934 -47.3776,3.4982 6.9824,0.4556 19.2013,6.3583 18.7066,18.9247 -0.476,15.4442 -5.9717,39.0854 20.5641,62.7033 l 0.4681,-0.529 c 6.5554,-13.5955 15.3098,-26.0156 25.9103,-36.7598 6.7412,-6.5768 14.1418,-12.4419 22.0847,-17.5024 z m -59.7021,86.2987 c -24.8848,0 -34.5462,0.8446 -49.829,7.8776 -14.2876,6.5749 -28.7092,20.8014 -31.0257,35.9754 5.2594,-4.6151 18.0717,-9.0808 26.6077,0.1548 10.5841,11.2572 23.4166,31.8584 58.8804,29.7951 l -0.021,-0.3273 c -8.2047,-23.6138 -9.7998,-49.021 -4.6127,-73.4756 z m 10.7129,88.4836 c -26.5358,23.6179 -21.04,47.2592 -20.5641,62.7033 0.4947,12.5664 -11.7256,18.4677 -18.708,18.9234 12.3678,9.0915 32.6268,8.9532 47.379,3.4997 15.8061,-5.8435 23.22,-12.0776 40.8823,-29.74 l -0.5261,-0.5953 c -7.9435,-5.0608 -15.3445,-10.9262 -22.086,-17.5036 -10.5999,-10.7439 -19.3538,-23.1637 -25.9088,-36.7585 z"
         sodipodi:nodetypes="ssccccccsscsccccccsccccccccsccccccccsccccc" />
      <path
         id="path3316"
         style="fill:#ffcc00;fill-opacity:1;stroke:none;stroke-width:11.6385;stroke-linecap:round;stroke-linejoin:round;-inkscape-stroke:none;stop-color:#000000"
         d="m 2262.8059,-6354.5662 a 110.3585,110.3585 0 0 0 -156.069,-1e-4 110.3585,110.3585 0 0 0 0,156.0704 110.3585,110.3585 0 0 0 1.6338,1.4156 157.41299,157.41299 0 0 1 45.7051,-110.1484 157.41299,157.41299 0 0 1 110.2879,-45.7037 110.3585,110.3585 0 0 0 -1.5562,-1.634 z" />
      <circle
         style="fill:#003399;fill-opacity:0.67;stroke:none;stroke-width:13.7746;stroke-linecap:round;stroke-linejoin:round;-inkscape-stroke:none;stop-color:#000000"
         id="circle3318"
         cx="-2779.311"
         cy="-5983.0439"
         r="130.61301"
         transform="rotate(45)" />
      <g
         id="g3362"
         transform="matrix(13.403112,0,0,13.402872,-24861.796,70066.449)">
        <ellipse
           class="st2"
           cx="2023.9462"
           cy="-5690.002"
           id="ellipse3320"
           style="fill:#e6e6e6;fill-opacity:1;stroke-width:0.11546"
           rx="9.7448912"
           ry="9.7447882" />
        <path
           id="path3322"
           style="fill:#cbcfd1;fill-opacity:1;fill-rule:evenodd;stroke-width:2.55632;stroke-linecap:round;stroke-linejoin:round;paint-order:stroke markers fill;stop-color:#000000"
           d="m 2023.9465,-5699.7471 a 9.7448996,9.7447788 0 0 0 -9.7454,9.7454 9.7448996,9.7447788 0 0 0 9.7454,9.7446 9.7448996,9.7447788 0 0 0 0.5461,-0.04 12.886522,12.856824 0 0 1 -4.4359,-9.705 12.886522,12.856824 0 0 1 4.46,-9.7263 9.7448996,9.7447788 0 0 0 -0.5702,-0.019 z" />
        <ellipse
           transform="matrix(0.90458687,0.42628934,-0.42629669,0.9045834,0,0)"
           class="st3"
           cx="-601.71686"
           cy="-6010.5552"
           rx="1.6511133"
           ry="2.3669648"
           id="ellipse3324"
           style="fill:#b0b9bb;fill-opacity:1;stroke-width:0.115462" />
        <ellipse
           transform="matrix(0.73900623,-0.67369859,0.67370634,0.73899916,0,0)"
           class="st4"
           cx="5336.5659"
           cy="-2841.416"
           rx="1.3393339"
           ry="2.1475506"
           id="ellipse3326"
           style="fill:#95a5a5;fill-opacity:1;stroke-width:0.11546" />
        <ellipse
           transform="matrix(0.94942171,-0.31400385,0.31400982,0.94941973,0,0)"
           class="st4"
           cx="3713.2344"
           cy="-4766.6694"
           rx="0.63501984"
           ry="1.0160232"
           id="ellipse3328"
           style="fill:#95a5a5;fill-opacity:1;stroke-width:0.115458" />
        <ellipse
           transform="matrix(0.38720195,-0.92199493,0.92199784,0.38719501,0,0)"
           class="st4"
           cx="6027.9658"
           cy="-337.22345"
           rx="0.63503116"
           ry="1.0160574"
           id="ellipse3330"
           style="fill:#95a5a5;fill-opacity:1;stroke-width:0.115461" />
        <ellipse
           transform="matrix(-0.37779896,-0.92588765,0.92589044,-0.37779212,0,0)"
           class="st4"
           cx="4501.2896"
           cy="4020.5435"
           rx="0.30019891"
           ry="0.47339413"
           id="ellipse3332"
           style="fill:#95a5a5;fill-opacity:1;stroke-width:0.115462" />
        <ellipse
           transform="matrix(0.61429075,-0.78907977,0.78908606,0.61428266,0,0)"
           class="st4"
           cx="5732.5103"
           cy="-1896.2771"
           rx="0.30020258"
           ry="0.47339761"
           id="ellipse3334"
           style="fill:#95a5a5;fill-opacity:1;stroke-width:0.115463" />
        <ellipse
           transform="matrix(0.61429075,-0.78907977,0.78908606,0.61428266,0,0)"
           class="st4"
           cx="5736.0747"
           cy="-1900.5787"
           rx="0.15010129"
           ry="0.24247193"
           id="ellipse3336"
           style="fill:#95a5a5;fill-opacity:1;stroke-width:0.115463" />
        <ellipse
           transform="matrix(0.61440146,-0.78899356,0.78899984,0.6143934,0,0)"
           class="st4"
           cx="5724.9316"
           cy="-1898.3788"
           rx="0.15009867"
           ry="0.2424677"
           id="ellipse3338"
           style="fill:#b0b9bb;fill-opacity:1;stroke-width:0.115461" />
        <ellipse
           transform="matrix(-0.54708904,-0.83707442,0.83707971,-0.54708095,0,0)"
           class="st4"
           cx="3650.5681"
           cy="4801.2759"
           rx="0.15010203"
           ry="0.24247354"
           id="ellipse3340"
           style="fill:#b0b9bb;fill-opacity:1;stroke-width:0.115463" />
        <ellipse
           transform="matrix(0.9493919,-0.31409397,0.31409994,0.94938992,0,0)"
           class="st4"
           cx="3700.6389"
           cy="-4767.959"
           rx="0.42720857"
           ry="0.69276482"
           id="ellipse3342"
           style="fill:#b0b9bb;fill-opacity:1;stroke-width:0.115461" />
        <ellipse
           transform="matrix(0.94946137,-0.3138839,0.31388987,0.9494594,0,0)"
           class="st4"
           cx="3700.7102"
           cy="-4767.6958"
           rx="0.28866374"
           ry="0.46185803"
           id="ellipse3344"
           style="fill:#b0b9bb;fill-opacity:1;stroke-width:0.115465" />
        <ellipse
           transform="matrix(-0.77722948,-0.62921724,0.62922525,-0.777223,0,0)"
           class="st4"
           cx="2014.8383"
           cy="5698.981"
           rx="0.28864104"
           ry="0.46182466"
           id="ellipse3346"
           style="fill:#b0b9bb;fill-opacity:1;stroke-width:0.115456" />
        <ellipse
           transform="matrix(-0.77718061,-0.6292776,0.62928561,-0.77717413,0,0)"
           class="st4"
           cx="2014.0334"
           cy="5700.0615"
           rx="0.12701005"
           ry="0.20783415"
           id="ellipse3348"
           style="fill:#b0b9bb;fill-opacity:1;stroke-width:0.115463" />
        <ellipse
           transform="matrix(-0.77718061,-0.6292776,0.62928561,-0.77717413,0,0)"
           class="st4"
           cx="1999.8253"
           cy="5692.4668"
           rx="0.31175193"
           ry="0.49649277"
           id="ellipse3350"
           style="fill:#95a5a5;fill-opacity:1;stroke-width:0.115463" />
        <ellipse
           transform="matrix(0.13230264,0.99120937,-0.99120974,0.13229989,0,0)"
           class="st4"
           cx="-5363.6299"
           cy="-2759.3257"
           rx="0.21937111"
           ry="0.34637895"
           id="ellipse3352"
           style="fill:#95a5a5;fill-opacity:1;stroke-width:0.115459" />
        <ellipse
           transform="matrix(-0.87279286,0.4880908,-0.48809864,-0.87278847,0,0)"
           class="st4"
           cx="-4542.1069"
           cy="3971.1304"
           rx="0.41566226"
           ry="0.6696744"
           id="ellipse3354"
           style="fill:#95a5a5;fill-opacity:1;stroke-width:0.115461" />
        <ellipse
           transform="matrix(0.65169248,0.75848329,-0.75849008,0.65168459,0,0)"
           class="st4"
           cx="-2990.1807"
           cy="-5242.5303"
           rx="0.41566363"
           ry="0.66968137"
           id="ellipse3356"
           style="fill:#95a5a5;fill-opacity:1;stroke-width:0.115462" />
        <ellipse
           transform="matrix(0.61630959,-0.78750396,0.78751027,0.61630153,0,0)"
           class="st4"
           cx="5720.9004"
           cy="-1916.8817"
           rx="0.53111136"
           ry="0.85439873"
           id="ellipse3358"
           style="fill:#b0b9bb;fill-opacity:1;stroke-width:0.115459" />
        <ellipse
           transform="matrix(0.89140897,0.4531998,-0.45320739,0.89140511,0,0)"
           class="st4"
           cx="-768.53424"
           cy="-5993.5098"
           rx="0.63502795"
           ry="1.0160385"
           id="ellipse3360"
           style="fill:#95a5a5;fill-opacity:1;stroke-width:0.115459" />
      </g>
    </g>
    <path
       id="path2511"
       style="font-size:12px;font-family:Roboto;fill:#ffd518;fill-opacity:1;stroke-width:0.111662"
       d="m 963.67969,400.63672 c -1.69367,0.25957 -3.28171,1.87003 -4.01563,3.46484 -0.78664,1.70939 -0.88086,2.78703 -0.88086,5.57617 l 0.0762,0.006 a 15.315427,15.315427 0 0 1 3.13867,-0.36132 15.315427,15.315427 0 0 1 5.02734,0.85546 c 0.22776,-3.95552 -2.07174,-5.38712 -3.32812,-6.56835 -1.03127,-0.95315 -0.53292,-2.38537 -0.0176,-2.97266 z m -17.46289,5.83984 c -1.01519,1.38101 -0.9996,3.64378 -0.39063,5.29102 0.65249,1.76497 1.35006,2.59224 3.32227,4.56445 l 0.10351,-0.0937 a 15.315427,15.315427 0 0 1 5.96289,-5.27344 l 0.11719,-0.10351 c -2.63723,-2.96304 -5.27742,-2.34806 -7.00195,-2.29492 -1.40319,0.0552 -2.06241,-1.31018 -2.11328,-2.08985 z m 31.5625,0 c -0.0509,0.77967 -0.71009,2.14508 -2.11328,2.08985 -1.72366,-0.0531 -4.36214,-0.66698 -6.99805,2.29101 a 15.315427,15.315427 0 0 1 6.18555,5.46875 c 1.96711,-1.96741 2.66465,-2.79563 3.3164,-4.55859 0.60897,-1.64725 0.62456,-3.91001 -0.39062,-5.29102 z m -15.78125,5.83789 a 12.322879,12.322879 0 0 0 -12.32227,12.32227 12.322879,12.322879 0 0 0 12.32227,12.32226 12.322879,12.322879 0 0 0 12.32226,-12.32226 12.322879,12.322879 0 0 0 -12.32226,-12.32227 z m 15.16797,7.28125 c -0.22648,-0.004 -0.46362,-5e-4 -0.70899,0.0137 a 15.315427,15.315427 0 0 1 0.85742,5.02734 15.315427,15.315427 0 0 1 -0.36133,3.13867 l 0.004,0.0762 c 1.32891,0 2.23767,-0.0312 3.04297,-0.13867 v -7.38867 c -0.76399,-0.39191 -1.63978,-0.70497 -2.83398,-0.72852 z m -30.12696,1.82618 c -2.78913,0 -3.86678,0.0942 -5.57617,0.88085 -1.59539,0.73418 -3.20617,2.32322 -3.46484,4.01758 0.58728,-0.51533 2.01755,-1.01558 2.9707,0.0156 1.18184,1.257 2.61618,3.5585 6.57617,3.32812 l -0.002,-0.0273 a 15.315427,15.315427 0 0 1 -0.86133,-5 15.315427,15.315427 0 0 1 0.36133,-3.13867 z m 2.10938,11.51953 c -1.97221,1.97221 -2.6698,2.80144 -3.32227,4.5664 -0.60897,1.64725 -0.62456,3.90804 0.39063,5.28907 0.0509,-0.77968 0.71008,-2.14312 2.11328,-2.0879 1.72453,0.0532 4.36472,0.66617 7.00195,-2.29687 l -0.11719,-0.10352 a 15.315427,15.315427 0 0 1 -5.96289,-5.27343 z m 25.70117,0 -0.10547,0.0937 a 15.315427,15.315427 0 0 1 -5.96289,5.27343 l -0.11719,0.10352 c 2.63723,2.96303 5.27744,2.35002 7.00196,2.29687 1.40319,-0.0552 2.0624,1.30821 2.11328,2.0879 1.01519,-1.38102 0.99959,-3.64181 0.39062,-5.28907 -0.65248,-1.76495 -1.34809,-2.59419 -3.32031,-4.5664 z m -17.87891,6.15039 c -0.23038,3.95999 2.07112,5.39238 3.32813,6.57422 1.03127,0.95315 0.53292,2.38341 0.0176,2.9707 1.69436,-0.25868 3.28144,-1.86946 4.01562,-3.46484 0.78664,-1.70939 0.88086,-2.78705 0.88086,-5.57618 l -0.0762,-0.004 a 15.315427,15.315427 0 0 1 -3.13867,0.36132 15.315427,15.315427 0 0 1 -5,-0.86132 z" />
    <g
       id="g2559"
       transform="matrix(0.61523898,0,0,0.61523898,-2331.8808,5346.6643)"
       style="font-size:12px;font-family:Roboto">
      <ellipse
         class="st2"
         cx="4557.3818"
         cy="-8000.187"
         id="ellipse2517"
         style="fill:#e6e6e6;fill-opacity:1;stroke-width:0.379136"
         rx="31.999586"
         ry="31.998688" />
      <path
         id="path2519"
         style="fill:#cbcfd1;fill-opacity:1;fill-rule:evenodd;stroke-width:8.39419;stroke-linecap:round;stroke-linejoin:round;paint-order:stroke markers fill;stop-color:#000000"
         d="m 4557.383,-8032.1868 a 31.999613,31.998657 0 0 0 -32.0012,32.0007 31.999613,31.998657 0 0 0 32.0012,31.9981 31.999613,31.998657 0 0 0 1.7933,-0.1313 42.315851,42.217593 0 0 1 -14.5663,-31.8681 42.315851,42.217593 0 0 1 14.6454,-31.938 31.999613,31.998657 0 0 0 -1.8724,-0.062 z" />
      <ellipse
         transform="matrix(0.90458974,0.42628325,-0.42630279,0.90458053,0,0)"
         class="st3"
         cx="689.30695"
         cy="-9181.8145"
         rx="5.421792"
         ry="7.7723608"
         id="ellipse2521"
         style="fill:#b0b9bb;fill-opacity:1;stroke-width:0.379143" />
      <ellipse
         transform="matrix(0.7390121,-0.67369216,0.67371278,0.7389933,0,0)"
         class="st4"
         cx="8782.2686"
         cy="-2841.9583"
         rx="4.397975"
         ry="7.0519075"
         id="ellipse2523"
         style="fill:#95a5a5;fill-opacity:1;stroke-width:0.379136" />
      <ellipse
         transform="matrix(0.94942334,-0.31399891,0.31401477,0.9494181,0,0)"
         class="st4"
         cx="6855.2705"
         cy="-6164.502"
         rx="2.0852296"
         ry="3.3362925"
         id="ellipse2525"
         style="fill:#95a5a5;fill-opacity:1;stroke-width:0.379129" />
      <ellipse
         transform="matrix(0.3872077,-0.92199251,0.92200026,0.38718926,0,0)"
         class="st4"
         cx="9134.6172"
         cy="1103.7711"
         rx="2.0852394"
         ry="3.3364487"
         id="ellipse2527"
         style="fill:#95a5a5;fill-opacity:1;stroke-width:0.379139" />
      <ellipse
         transform="matrix(-0.37780463,-0.92588534,0.92589276,-0.37778645,0,0)"
         class="st4"
         cx="5677.7241"
         cy="7232.0063"
         rx="0.98575723"
         ry="1.5544944"
         id="ellipse2529"
         style="fill:#95a5a5;fill-opacity:1;stroke-width:0.379143" />
      <ellipse
         transform="matrix(0.61429744,-0.78907456,0.78909126,0.61427598,0,0)"
         class="st4"
         cx="9110.1807"
         cy="-1311.8669"
         rx="0.98577332"
         ry="1.5544994"
         id="ellipse2531"
         style="fill:#95a5a5;fill-opacity:1;stroke-width:0.379146" />
      <ellipse
         transform="matrix(0.61429744,-0.78907456,0.78909126,0.61427598,0,0)"
         class="st4"
         cx="9121.8857"
         cy="-1325.9923"
         rx="0.49288666"
         ry="0.79620695"
         id="ellipse2533"
         style="fill:#95a5a5;fill-opacity:1;stroke-width:0.379146" />
      <ellipse
         transform="matrix(0.61440814,-0.78898837,0.78900505,0.61438671,0,0)"
         class="st4"
         cx="9085.9854"
         cy="-1317.4055"
         rx="0.49287805"
         ry="0.79619306"
         id="ellipse2535"
         style="fill:#b0b9bb;fill-opacity:1;stroke-width:0.379139" />
      <ellipse
         transform="matrix(-0.54709575,-0.83707003,0.83708409,-0.54707424,0,0)"
         class="st4"
         cx="4186.6768"
         cy="8172.4888"
         rx="0.49288842"
         ry="0.79621333"
         id="ellipse2537"
         style="fill:#b0b9bb;fill-opacity:1;stroke-width:0.379146" />
      <ellipse
         transform="matrix(0.94939353,-0.31408903,0.31410489,0.94938829,0,0)"
         class="st4"
         cx="6813.0103"
         cy="-6169.2432"
         rx="1.4028349"
         ry="2.2748163"
         id="ellipse2539"
         style="fill:#b0b9bb;fill-opacity:1;stroke-width:0.379139" />
      <ellipse
         transform="matrix(0.949463,-0.31387896,0.31389482,0.94945776,0,0)"
         class="st4"
         cx="6815.3433"
         cy="-6167.1973"
         rx="0.94789201"
         ry="1.5165929"
         id="ellipse2541"
         style="fill:#b0b9bb;fill-opacity:1;stroke-width:0.379153" />
      <ellipse
         transform="matrix(-0.77723486,-0.62921059,0.6292319,-0.77721761,0,0)"
         class="st4"
         cx="1516.8607"
         cy="9095.5664"
         rx="0.9478125"
         ry="1.5164912"
         id="ellipse2543"
         style="fill:#b0b9bb;fill-opacity:1;stroke-width:0.379123" />
      <ellipse
         transform="matrix(-0.77718599,-0.62927095,0.62929226,-0.77716874,0,0)"
         class="st4"
         cx="1513.4709"
         cy="9099.5107"
         rx="0.41706374"
         ry="0.68246394"
         id="ellipse2545"
         style="fill:#b0b9bb;fill-opacity:1;stroke-width:0.379146" />
      <ellipse
         transform="matrix(-0.77718599,-0.62927095,0.62929226,-0.77716874,0,0)"
         class="st4"
         cx="1466.8156"
         cy="9074.5713"
         rx="1.0237019"
         ry="1.6303307"
         id="ellipse2547"
         style="fill:#95a5a5;fill-opacity:1;stroke-width:0.379146" />
      <ellipse
         transform="matrix(0.13230491,0.99120907,-0.99121004,0.13229761,0,0)"
         class="st4"
         cx="-7298.7363"
         cy="-5576.9941"
         rx="0.72034299"
         ry="1.1374145"
         id="ellipse2549"
         style="fill:#95a5a5;fill-opacity:1;stroke-width:0.379133" />
      <ellipse
         transform="matrix(-0.87279649,0.4880843,-0.48810515,-0.87278483,0,0)"
         class="st4"
         cx="-7877.1211"
         cy="4734.5288"
         rx="1.3649167"
         ry="2.1990004"
         id="ellipse2551"
         style="fill:#95a5a5;fill-opacity:1;stroke-width:0.379139" />
      <ellipse
         transform="matrix(0.65169905,0.75847765,-0.75849572,0.65167802,0,0)"
         class="st4"
         cx="-3076.3091"
         cy="-8667.9873"
         rx="1.3649131"
         ry="2.1990361"
         id="ellipse2553"
         style="fill:#95a5a5;fill-opacity:1;stroke-width:0.379143" />
      <ellipse
         transform="matrix(0.61631627,-0.78749873,0.78751549,0.61629486,0,0)"
         class="st4"
         cx="9084.6768"
         cy="-1354.6656"
         rx="1.7440071"
         ry="2.8055956"
         id="ellipse2555"
         style="fill:#b0b9bb;fill-opacity:1;stroke-width:0.379133" />
      <ellipse
         transform="matrix(0.89141216,0.45319351,-0.45321368,0.89140191,0,0)"
         class="st4"
         cx="456.56641"
         cy="-9210.4307"
         rx="2.0852525"
         ry="3.3363492"
         id="ellipse2557"
         style="fill:#95a5a5;fill-opacity:1;stroke-width:0.379133" />
    </g>
    <path
       id="path2622"
       style="font-size:12px;font-family:Roboto;fill:#ffd518;fill-opacity:1;stroke-width:0.111662"
       d="m 0,420.32422 v 7.38867 c 0.88487,-0.1181 1.63827,-0.33034 2.5332,-0.74219 1.59539,-0.73417 3.20617,-2.32126 3.46485,-4.01562 -0.58728,0.51533 -2.01756,1.01368 -2.97071,-0.0176 C 2.30572,422.16999 1.42695,421.05621 0,420.32422 Z" />
    <g
       id="g2679"
       transform="matrix(0.11263462,0,0,0.11263462,17.2821,1131.8005)"
       style="font-size:12px;font-family:Roboto">
      <path
         id="path2629"
         style="fill:#ffcc00"
         d="m 2347.4059,-6417.8564 c -12.3677,-9.0916 -32.6254,-8.9519 -47.3775,-3.4983 -15.8062,5.8434 -23.2214,12.079 -40.8838,29.7413 l 0.5206,0.5899 c 7.9455,5.0613 15.3485,10.9278 22.0916,17.5064 7.4235,7.4547 13.9641,15.7391 19.4936,24.6893 4.995,1.2455 9.9258,2.7351 14.7748,4.4636 17.3964,-20.8097 13.0952,-40.8999 12.674,-54.5673 -0.4947,-12.5664 11.7242,-18.4691 18.7066,-18.9248 z m -147.5671,-73.6055 c -15.1739,2.3166 -29.4006,16.7382 -35.9755,31.0257 -7.0328,15.2829 -7.8747,24.9443 -7.8776,49.829 24.4546,-5.187 49.8618,-3.5919 73.4756,4.6128 l 0.3274,0.021 c 2.0632,-35.464 -18.538,-48.2963 -29.7952,-58.8805 -9.2355,-8.5359 -4.7698,-21.3482 -0.1547,-26.6077 z m -89.4421,99.8472 c -17.6623,-17.6623 -25.0761,-23.8966 -40.8823,-29.7399 -14.7521,-5.4537 -35.0099,-5.5934 -47.3776,3.4982 6.9824,0.4556 19.2013,6.3583 18.7066,18.9247 -0.476,15.4442 -5.9717,39.0854 20.5641,62.7033 l 0.4681,-0.529 c 6.5554,-13.5955 15.3098,-26.0156 25.9103,-36.7598 6.7412,-6.5768 14.1418,-12.4419 22.0847,-17.5024 z m -59.7021,86.2987 c -24.8848,0 -34.5462,0.8446 -49.829,7.8776 -14.2876,6.5749 -28.7092,20.8014 -31.0257,35.9754 5.2594,-4.6151 18.0717,-9.0808 26.6077,0.1548 10.5841,11.2572 23.4166,31.8584 58.8804,29.7951 l -0.021,-0.3273 c -8.2047,-23.6138 -9.7998,-49.021 -4.6127,-73.4756 z m 10.7129,88.4836 c -26.5358,23.6179 -21.04,47.2592 -20.5641,62.7033 0.4947,12.5664 -11.7256,18.4677 -18.708,18.9234 12.3678,9.0915 32.6268,8.9532 47.379,3.4997 15.8061,-5.8435 23.22,-12.0776 40.8823,-29.74 l -0.5261,-0.5953 c -7.9435,-5.0608 -15.3445,-10.9262 -22.086,-17.5036 -10.5999,-10.7439 -19.3538,-23.1637 -25.9088,-36.7585 z"
         sodipodi:nodetypes="ssccccccsscsccccccsccccccccsccccccccsccccc" />
      <path
         id="path2631"
         style="fill:#ffcc00;fill-opacity:1;stroke:none;stroke-width:11.6385;stroke-linecap:round;stroke-linejoin:round;-inkscape-stroke:none;stop-color:#000000"
         d="m 2262.8059,-6354.5662 a 110.3585,110.3585 0 0 0 -156.069,-1e-4 110.3585,110.3585 0 0 0 0,156.0704 110.3585,110.3585 0 0 0 1.6338,1.4156 157.41299,157.41299 0 0 1 45.7051,-110.1484 157.41299,157.41299 0 0 1 110.2879,-45.7037 110.3585,110.3585 0 0 0 -1.5562,-1.634 z" />
      <circle
         style="fill:#003399;fill-opacity:0.67;stroke:none;stroke-width:13.7746;stroke-linecap:round;stroke-linejoin:round;-inkscape-stroke:none;stop-color:#000000"
         id="circle2633"
         cx="-2779.311"
         cy="-5983.0439"
         r="130.61301"
         transform="rotate(45)" />
      <g
         id="g2677"
         transform="matrix(13.403112,0,0,13.402872,-24861.796,70066.449)">
        <ellipse
           class="st2"
           cx="2023.9462"
           cy="-5690.002"
           id="ellipse2635"
           style="fill:#e6e6e6;fill-opacity:1;stroke-width:0.11546"
           rx="9.7448912"
           ry="9.7447882" />
        <path
           id="path2637"
           style="fill:#cbcfd1;fill-opacity:1;fill-rule:evenodd;stroke-width:2.55632;stroke-linecap:round;stroke-linejoin:round;paint-order:stroke markers fill;stop-color:#000000"
           d="m 2023.9465,-5699.7471 a 9.7448996,9.7447788 0 0 0 -9.7454,9.7454 9.7448996,9.7447788 0 0 0 9.7454,9.7446 9.7448996,9.7447788 0 0 0 0.5461,-0.04 12.886522,12.856824 0 0 1 -4.4359,-9.705 12.886522,12.856824 0 0 1 4.46,-9.7263 9.7448996,9.7447788 0 0 0 -0.5702,-0.019 z" />
        <ellipse
           transform="matrix(0.90458687,0.42628934,-0.42629669,0.9045834,0,0)"
           class="st3"
           cx="-601.71686"
           cy="-6010.5552"
           rx="1.6511133"
           ry="2.3669648"
           id="ellipse2639"
           style="fill:#b0b9bb;fill-opacity:1;stroke-width:0.115462" />
        <ellipse
           transform="matrix(0.73900623,-0.67369859,0.67370634,0.73899916,0,0)"
           class="st4"
           cx="5336.5659"
           cy="-2841.416"
           rx="1.3393339"
           ry="2.1475506"
           id="ellipse2641"
           style="fill:#95a5a5;fill-opacity:1;stroke-width:0.11546" />
        <ellipse
           transform="matrix(0.94942171,-0.31400385,0.31400982,0.94941973,0,0)"
           class="st4"
           cx="3713.2344"
           cy="-4766.6694"
           rx="0.63501984"
           ry="1.0160232"
           id="ellipse2643"
           style="fill:#95a5a5;fill-opacity:1;stroke-width:0.115458" />
        <ellipse
           transform="matrix(0.38720195,-0.92199493,0.92199784,0.38719501,0,0)"
           class="st4"
           cx="6027.9658"
           cy="-337.22345"
           rx="0.63503116"
           ry="1.0160574"
           id="ellipse2645"
           style="fill:#95a5a5;fill-opacity:1;stroke-width:0.115461" />
        <ellipse
           transform="matrix(-0.37779896,-0.92588765,0.92589044,-0.37779212,0,0)"
           class="st4"
           cx="4501.2896"
           cy="4020.5435"
           rx="0.30019891"
           ry="0.47339413"
           id="ellipse2647"
           style="fill:#95a5a5;fill-opacity:1;stroke-width:0.115462" />
        <ellipse
           transform="matrix(0.61429075,-0.78907977,0.78908606,0.61428266,0,0)"
           class="st4"
           cx="5732.5103"
           cy="-1896.2771"
           rx="0.30020258"
           ry="0.47339761"
           id="ellipse2649"
           style="fill:#95a5a5;fill-opacity:1;stroke-width:0.115463" />
        <ellipse
           transform="matrix(0.61429075,-0.78907977,0.78908606,0.61428266,0,0)"
           class="st4"
           cx="5736.0747"
           cy="-1900.5787"
           rx="0.15010129"
           ry="0.24247193"
           id="ellipse2651"
           style="fill:#95a5a5;fill-opacity:1;stroke-width:0.115463" />
        <ellipse
           transform="matrix(0.61440146,-0.78899356,0.78899984,0.6143934,0,0)"
           class="st4"
           cx="5724.9316"
           cy="-1898.3788"
           rx="0.15009867"
           ry="0.2424677"
           id="ellipse2653"
           style="fill:#b0b9bb;fill-opacity:1;stroke-width:0.115461" />
        <ellipse
           transform="matrix(-0.54708904,-0.83707442,0.83707971,-0.54708095,0,0)"
           class="st4"
           cx="3650.5681"
           cy="4801.2759"
           rx="0.15010203"
           ry="0.24247354"
           id="ellipse2655"
           style="fill:#b0b9bb;fill-opacity:1;stroke-width:0.115463" />
        <ellipse
           transform="matrix(0.9493919,-0.31409397,0.31409994,0.94938992,0,0)"
           class="st4"
           cx="3700.6389"
           cy="-4767.959"
           rx="0.42720857"
           ry="0.69276482"
           id="ellipse2657"
           style="fill:#b0b9bb;fill-opacity:1;stroke-width:0.115461" />
        <ellipse
           transform="matrix(0.94946137,-0.3138839,0.31388987,0.9494594,0,0)"
           class="st4"
           cx="3700.7102"
           cy="-4767.6958"
           rx="0.28866374"
           ry="0.46185803"
           id="ellipse2659"
           style="fill:#b0b9bb;fill-opacity:1;stroke-width:0.115465" />
        <ellipse
           transform="matrix(-0.77722948,-0.62921724,0.62922525,-0.777223,0,0)"
           class="st4"
           cx="2014.8383"
           cy="5698.981"
           rx="0.28864104"
           ry="0.46182466"
           id="ellipse2661"
           style="fill:#b0b9bb;fill-opacity:1;stroke-width:0.115456" />
        <ellipse
           transform="matrix(-0.77718061,-0.6292776,0.62928561,-0.77717413,0,0)"
           class="st4"
           cx="2014.0334"
           cy="5700.0615"
           rx="0.12701005"
           ry="0.20783415"
           id="ellipse2663"
           style="fill:#b0b9bb;fill-opacity:1;stroke-width:0.115463" />
        <ellipse
           transform="matrix(-0.77718061,-0.6292776,0.62928561,-0.77717413,0,0)"
           class="st4"
           cx="1999.8253"
           cy="5692.4668"
           rx="0.31175193"
           ry="0.49649277"
           id="ellipse2665"
           style="fill:#95a5a5;fill-opacity:1;stroke-width:0.115463" />
        <ellipse
           transform="matrix(0.13230264,0.99120937,-0.99120974,0.13229989,0,0)"
           class="st4"
           cx="-5363.6299"
           cy="-2759.3257"
           rx="0.21937111"
           ry="0.34637895"
           id="ellipse2667"
           style="fill:#95a5a5;fill-opacity:1;stroke-width:0.115459" />
        <ellipse
           transform="matrix(-0.87279286,0.4880908,-0.48809864,-0.87278847,0,0)"
           class="st4"
           cx="-4542.1069"
           cy="3971.1304"
           rx="0.41566226"
           ry="0.6696744"
           id="ellipse2669"
           style="fill:#95a5a5;fill-opacity:1;stroke-width:0.115461" />
        <ellipse
           transform="matrix(0.65169248,0.75848329,-0.75849008,0.65168459,0,0)"
           class="st4"
           cx="-2990.1807"
           cy="-5242.5303"
           rx="0.41566363"
           ry="0.66968137"
           id="ellipse2671"
           style="fill:#95a5a5;fill-opacity:1;stroke-width:0.115462" />
        <ellipse
           transform="matrix(0.61630959,-0.78750396,0.78751027,0.61630153,0,0)"
           class="st4"
           cx="5720.9004"
           cy="-1916.8817"
           rx="0.53111136"
           ry="0.85439873"
           id="ellipse2673"
           style="fill:#b0b9bb;fill-opacity:1;stroke-width:0.115459" />
        <ellipse
           transform="matrix(0.89140897,0.4531998,-0.45320739,0.89140511,0,0)"
           class="st4"
           cx="-768.53424"
           cy="-5993.5098"
           rx="0.63502795"
           ry="1.0160385"
           id="ellipse2675"
           style="fill:#95a5a5;fill-opacity:1;stroke-width:0.115459" />
      </g>
    </g>
  </g>
</svg>
